<?xml version="1.0" encoding="UTF-8" standalone="no"?>
<!DOCTYPE svg PUBLIC "-//W3C//DTD SVG 1.1//EN" "http://www.w3.org/Graphics/SVG/1.1/DTD/svg11.dtd">
<svg width="100%" height="100%" viewBox="0 0 425 325" version="1.1" xmlns="http://www.w3.org/2000/svg" xmlns:xlink="http://www.w3.org/1999/xlink" xml:space="preserve" xmlns:serif="http://www.serif.com/" style="fill-rule:evenodd;clip-rule:evenodd;stroke-linejoin:round;stroke-miterlimit:2;">
    <g transform="matrix(1,0,0,1,-1312.98,-1277.21)">
        <path d="M1426.81,1332.64C1432.12,1341.85 1425.31,1355.73 1411.58,1363.66C1397.85,1371.58 1382.42,1370.55 1377.1,1361.34C1371.79,1352.13 1378.61,1338.24 1392.33,1330.32C1406.06,1322.39 1421.49,1323.43 1426.81,1332.64Z" style="fill:rgb(3,50,63);fill-rule:nonzero;"/>
        <path d="M1387.41,1346.47C1385.32,1344.01 1380.07,1334.74 1363.94,1305.98L1374.99,1297.64C1388.37,1311.06 1405.17,1328.03 1406.02,1328.53L1387.41,1346.47Z" style="fill:rgb(3,50,63);fill-rule:nonzero;"/>
        <path d="M1385.44,1297.58C1385.44,1308.7 1376.42,1317.73 1365.29,1317.73C1354.16,1317.73 1345.14,1308.7 1345.14,1297.58C1345.14,1286.45 1354.16,1277.42 1365.29,1277.42C1376.42,1277.42 1385.44,1286.45 1385.44,1297.58Z" style="fill:rgb(199,216,234);fill-rule:nonzero;"/>
        <path d="M1365.22,1317.73L1365.19,1317.73L1365.22,1317.73ZM1365.15,1317.73L1365.12,1317.73L1365.15,1317.73ZM1365.08,1317.73L1365.04,1317.73L1365.08,1317.73ZM1365.01,1317.73C1365,1317.73 1364.98,1317.72 1364.97,1317.72C1364.98,1317.72 1365,1317.73 1365.01,1317.73ZM1364.95,1317.72L1364.9,1317.72L1364.95,1317.72ZM1364.89,1317.72C1363.42,1317.7 1362,1317.51 1360.62,1317.18C1362,1317.51 1363.43,1317.7 1364.89,1317.72ZM1360.62,1277.96C1360.94,1277.89 1361.25,1277.82 1361.57,1277.76C1361.25,1277.82 1360.94,1277.89 1360.62,1277.96ZM1361.61,1277.76L1361.62,1277.76L1361.61,1277.76ZM1364.91,1277.43L1364.92,1277.43L1364.91,1277.43ZM1364.98,1277.42L1365,1277.42L1364.98,1277.42ZM1365.05,1277.42L1365.07,1277.42L1365.05,1277.42ZM1365.12,1277.42L1365.15,1277.42L1365.12,1277.42ZM1365.19,1277.42L1365.22,1277.42L1365.19,1277.42Z" style="fill:rgb(213,222,226);fill-rule:nonzero;"/>
        <path d="M1365.29,1317.73L1365.01,1317.73C1365,1317.73 1364.98,1317.72 1364.97,1317.72L1364.89,1317.72C1363.43,1317.7 1362,1317.51 1360.62,1317.18C1369.5,1315.08 1376.11,1307.1 1376.11,1297.58C1376.11,1288.05 1369.5,1280.07 1360.62,1277.96C1360.94,1277.89 1361.25,1277.82 1361.57,1277.76L1361.62,1277.76C1362.69,1277.56 1363.79,1277.45 1364.91,1277.43L1364.92,1277.43C1364.94,1277.42 1364.96,1277.42 1364.98,1277.42L1365.29,1277.42C1376.42,1277.42 1385.44,1286.45 1385.44,1297.58C1385.44,1300.66 1384.75,1303.59 1383.51,1306.2C1380.96,1311.58 1376.09,1315.65 1370.19,1317.13C1368.62,1317.52 1366.98,1317.73 1365.29,1317.73Z" style="fill:rgb(166,188,207);fill-rule:nonzero;"/>
        <path d="M1360.62,1317.18C1381.48,1321.26 1393.28,1294.96 1377.45,1282.18C1372.89,1278.42 1366.58,1276.8 1360.62,1277.96C1372.76,1274.44 1386.02,1283.63 1386.12,1297.58C1386.02,1311.38 1372.87,1320.73 1360.62,1317.18Z" style="fill:rgb(3,50,63);fill-rule:nonzero;"/>
        <path d="M1356.97,1304.31C1352.37,1304.31 1348.65,1300.58 1348.65,1295.99C1348.65,1291.39 1352.37,1287.67 1356.97,1287.67C1361.56,1287.67 1365.29,1291.39 1365.29,1295.99C1365.29,1300.58 1361.56,1304.31 1356.97,1304.31Z" style="fill:rgb(219,231,243);fill-rule:nonzero;"/>
        <path d="M1627.4,1335.21C1622.09,1344.42 1628.91,1358.3 1642.63,1366.23C1656.36,1374.15 1671.79,1373.11 1677.11,1363.91C1682.43,1354.7 1675.61,1340.81 1661.88,1332.89C1648.16,1324.96 1632.72,1326 1627.4,1335.21Z" style="fill:rgb(3,50,63);fill-rule:nonzero;"/>
        <path d="M1666.81,1349.04C1668.89,1346.58 1674.14,1337.31 1690.28,1308.55L1679.23,1300.21C1665.85,1313.63 1649.04,1330.6 1648.2,1331.1L1666.81,1349.04Z" style="fill:rgb(3,50,63);fill-rule:nonzero;"/>
        <path d="M1668.77,1300.14C1668.77,1311.27 1677.79,1320.3 1688.92,1320.3C1700.05,1320.3 1709.08,1311.27 1709.08,1300.14C1709.08,1289.01 1700.05,1279.99 1688.92,1279.99C1677.79,1279.99 1668.77,1289.01 1668.77,1300.14Z" style="fill:rgb(199,216,234);fill-rule:nonzero;"/>
        <path d="M1688.99,1320.3L1689.02,1320.3L1688.99,1320.3ZM1689.07,1320.3L1689.09,1320.3L1689.07,1320.3ZM1689.14,1320.3L1689.16,1320.3L1689.14,1320.3ZM1689.21,1320.3L1689.23,1320.3L1689.21,1320.3ZM1689.23,1279.99L1689.22,1279.99L1689.23,1279.99ZM1689.16,1279.99L1689.14,1279.99L1689.16,1279.99ZM1689.09,1279.99L1689.07,1279.99L1689.09,1279.99ZM1689.02,1279.99L1688.99,1279.99L1689.02,1279.99Z" style="fill:rgb(213,222,226);fill-rule:nonzero;"/>
        <path d="M1688.92,1320.3C1687.23,1320.3 1685.59,1320.09 1684.02,1319.7C1678.12,1318.22 1673.26,1314.15 1670.7,1308.77C1669.46,1306.15 1668.77,1303.23 1668.77,1300.14C1668.77,1289.01 1677.79,1279.99 1688.92,1279.99L1689.23,1279.99C1690.73,1280.02 1692.19,1280.2 1693.59,1280.53C1684.71,1282.64 1678.11,1290.62 1678.11,1300.14C1678.11,1309.67 1684.71,1317.65 1693.59,1319.75C1692.21,1320.08 1690.78,1320.27 1689.3,1320.29C1689.27,1320.29 1689.25,1320.29 1689.23,1320.3L1688.92,1320.3Z" style="fill:rgb(166,188,207);fill-rule:nonzero;"/>
        <path d="M1693.59,1319.75C1672.73,1323.83 1660.93,1297.53 1676.76,1284.75C1681.32,1280.99 1687.63,1279.37 1693.59,1280.54C1681.46,1277.01 1668.19,1286.19 1668.1,1300.14C1668.2,1313.95 1681.35,1323.3 1693.59,1319.75Z" style="fill:rgb(3,50,63);fill-rule:nonzero;"/>
        <path d="M1697.24,1306.88C1692.65,1306.88 1688.92,1303.15 1688.92,1298.55C1688.92,1293.96 1692.65,1290.24 1697.24,1290.24C1701.84,1290.24 1705.56,1293.96 1705.56,1298.55C1705.56,1303.15 1701.84,1306.88 1697.24,1306.88Z" style="fill:rgb(219,231,243);fill-rule:nonzero;"/>
        <path d="M1312.98,1466.02C1312.98,1518.66 1408,1561.34 1525.21,1561.34C1642.43,1561.34 1737.45,1518.66 1737.45,1466.02C1737.45,1413.38 1642.43,1370.71 1525.21,1370.71C1408,1370.71 1312.98,1413.38 1312.98,1466.02Z" style="fill:rgb(3,50,63);fill-rule:nonzero;"/>
        <path d="M1712.67,1510.75C1708.91,1513.93 1704.75,1517 1700.24,1519.94C1711.24,1488.32 1716,1453.2 1714.85,1423.18C1718.31,1426.27 1721.42,1429.45 1724.13,1432.72C1724.04,1457.48 1720.28,1484.82 1712.67,1510.75Z" style="fill:rgb(162,191,220);fill-rule:nonzero;"/>
        <path d="M1326.35,1432.65C1329.08,1429.37 1332.2,1426.18 1335.68,1423.08C1333.9,1453.4 1339.98,1489.12 1352.1,1521.17C1347.4,1518.2 1343.07,1515.1 1339.14,1511.9C1330.65,1485.46 1326.22,1457.66 1326.35,1432.65Z" style="fill:rgb(162,191,220);fill-rule:nonzero;"/>
        <path d="M1467.53,1601.03C1506.84,1595.58 1546.72,1594.74 1586.36,1598.59C1677.51,1607.45 1709.95,1470.92 1696.95,1402.2C1690.32,1367.17 1651.27,1342.06 1618.3,1334.26C1558.54,1320.13 1494.7,1319.24 1434.64,1331.84C1402.41,1338.71 1370.53,1360.57 1357.98,1391.99C1331.77,1457.64 1378.49,1613.39 1467.53,1601.03Z" style="fill:rgb(162,191,220);fill-rule:nonzero;"/>
        <path d="M1457.59,1601.73C1419.97,1601.72 1390.72,1571.28 1372.41,1532.17C1390.73,1571.28 1419.98,1601.71 1457.59,1601.73ZM1594.71,1599C1591.98,1599 1589.2,1598.87 1586.36,1598.59C1582.53,1598.22 1578.7,1597.89 1574.87,1597.61C1578.7,1597.89 1582.53,1598.22 1586.36,1598.59C1589.19,1598.87 1591.99,1599 1594.71,1599L1594.83,1599L1594.71,1599ZM1594.83,1599L1594.94,1599L1594.83,1599ZM1594.97,1599L1595.08,1599L1594.97,1599ZM1595.1,1599L1595.43,1599L1595.1,1599ZM1595.47,1599L1595.57,1599L1595.47,1599ZM1595.59,1599C1595.71,1599 1595.81,1599 1595.93,1598.99C1595.82,1599 1595.71,1599 1595.59,1599ZM1595.96,1598.99L1596.06,1598.99L1595.96,1598.99ZM1596.09,1598.99L1596.42,1598.99L1596.09,1598.99ZM1596.45,1598.98L1596.55,1598.98L1596.45,1598.98ZM1596.59,1598.98L1596.68,1598.98L1596.59,1598.98ZM1596.72,1598.98C1596.77,1598.98 1596.84,1598.98 1596.9,1598.97C1596.84,1598.98 1596.78,1598.98 1596.72,1598.98ZM1596.94,1598.97L1597.03,1598.97L1596.94,1598.97ZM1597.08,1598.97L1597.17,1598.97L1597.08,1598.97ZM1597.21,1598.96L1597.38,1598.96L1597.21,1598.96ZM1597.43,1598.96C1597.46,1598.96 1597.49,1598.96 1597.51,1598.95C1597.49,1598.96 1597.46,1598.96 1597.43,1598.96ZM1597.58,1598.95L1597.65,1598.95L1597.58,1598.95ZM1597.74,1598.95C1597.77,1598.95 1597.8,1598.94 1597.82,1598.94C1597.79,1598.94 1597.77,1598.95 1597.74,1598.95ZM1597.92,1598.94L1597.99,1598.94L1597.92,1598.94ZM1598.07,1598.93L1598.13,1598.93L1598.07,1598.93ZM1598.23,1598.93L1598.27,1598.93L1598.23,1598.93ZM1598.42,1598.92L1598.45,1598.92L1598.42,1598.92ZM1598.56,1598.91L1598.61,1598.91L1598.56,1598.91ZM1598.73,1598.9L1598.75,1598.9L1598.73,1598.9ZM1598.9,1598.9C1598.91,1598.89 1598.91,1598.89 1598.92,1598.89C1598.91,1598.89 1598.91,1598.9 1598.9,1598.9ZM1599.05,1598.89L1599.08,1598.89L1599.05,1598.89ZM1599.21,1598.88L1599.23,1598.88L1599.21,1598.88ZM1599.54,1598.86L1599.55,1598.86L1599.54,1598.86ZM1352.89,1410.37C1354.08,1403.71 1355.77,1397.53 1357.98,1391.99C1355.77,1397.53 1354.08,1403.71 1352.89,1410.37ZM1357.98,1391.99C1359.31,1388.68 1360.85,1385.47 1362.58,1382.38C1360.85,1385.47 1359.31,1388.68 1357.98,1391.99ZM1362.58,1382.38C1362.61,1382.32 1362.64,1382.26 1362.67,1382.21C1362.64,1382.26 1362.61,1382.32 1362.58,1382.38ZM1362.68,1382.2C1362.71,1382.15 1362.74,1382.09 1362.77,1382.03C1362.74,1382.09 1362.71,1382.15 1362.68,1382.2ZM1362.77,1382.03C1362.8,1381.98 1362.83,1381.92 1362.86,1381.87C1362.83,1381.92 1362.8,1381.98 1362.77,1382.03ZM1362.87,1381.86C1362.9,1381.8 1362.93,1381.75 1362.96,1381.7C1362.93,1381.75 1362.9,1381.8 1362.87,1381.86ZM1362.97,1381.69C1363,1381.63 1363.03,1381.58 1363.06,1381.53C1363.03,1381.58 1363,1381.63 1362.97,1381.69ZM1363.07,1381.51C1363.1,1381.46 1363.13,1381.41 1363.16,1381.36C1363.13,1381.41 1363.1,1381.46 1363.07,1381.51ZM1363.17,1381.34C1363.19,1381.29 1363.22,1381.25 1363.25,1381.2C1363.22,1381.24 1363.19,1381.3 1363.17,1381.34ZM1363.27,1381.17C1363.29,1381.12 1363.32,1381.07 1363.35,1381.02C1363.32,1381.07 1363.29,1381.12 1363.27,1381.17ZM1363.36,1381C1363.39,1380.95 1363.42,1380.91 1363.44,1380.86C1363.42,1380.91 1363.39,1380.96 1363.36,1381ZM1363.47,1380.83C1363.49,1380.78 1363.52,1380.74 1363.55,1380.69C1363.52,1380.74 1363.49,1380.78 1363.47,1380.83ZM1363.56,1380.66C1363.59,1380.62 1363.62,1380.57 1363.64,1380.52C1363.62,1380.57 1363.59,1380.61 1363.56,1380.66ZM1363.67,1380.49C1363.69,1380.45 1363.72,1380.4 1363.74,1380.36C1363.72,1380.4 1363.69,1380.45 1363.67,1380.49ZM1363.77,1380.32C1363.79,1380.28 1363.81,1380.24 1363.84,1380.2C1363.81,1380.24 1363.79,1380.28 1363.77,1380.32ZM1363.87,1380.15C1363.89,1380.11 1363.91,1380.07 1363.94,1380.03C1363.91,1380.07 1363.89,1380.11 1363.87,1380.15ZM1363.97,1379.98C1363.99,1379.95 1364.01,1379.91 1364.03,1379.87C1364.01,1379.91 1363.99,1379.94 1363.97,1379.98ZM1364.07,1379.81C1364.09,1379.78 1364.11,1379.75 1364.13,1379.72C1364.11,1379.75 1364.09,1379.78 1364.07,1379.81ZM1364.18,1379.64C1364.19,1379.61 1364.21,1379.59 1364.23,1379.56C1364.21,1379.58 1364.19,1379.61 1364.18,1379.64ZM1364.28,1379.47C1364.29,1379.45 1364.31,1379.42 1364.32,1379.4C1364.31,1379.42 1364.29,1379.45 1364.28,1379.47ZM1364.38,1379.3C1364.4,1379.28 1364.41,1379.26 1364.42,1379.23C1364.41,1379.26 1364.4,1379.28 1364.38,1379.3ZM1364.49,1379.13C1364.5,1379.12 1364.51,1379.1 1364.52,1379.08C1364.51,1379.1 1364.5,1379.12 1364.49,1379.13ZM1364.59,1378.97C1364.6,1378.95 1364.61,1378.94 1364.61,1378.93C1364.61,1378.94 1364.6,1378.95 1364.59,1378.97ZM1364.7,1378.8L1364.7,1378.79L1364.7,1378.8ZM1364.8,1378.63C1364.8,1378.63 1364.8,1378.62 1364.81,1378.62L1364.8,1378.63Z" style="fill:rgb(213,222,226);fill-rule:nonzero;"/>
        <path d="M1372.41,1532.17C1354.05,1492.98 1346.68,1445.08 1352.89,1410.37C1346.68,1445.08 1354.06,1492.98 1372.41,1532.17Z" style="fill:rgb(3,44,57);fill-rule:nonzero;"/>
        <path d="M1457.61,1601.73L1457.59,1601.73C1419.98,1601.71 1390.73,1571.28 1372.41,1532.17C1354.06,1492.98 1346.68,1445.08 1352.89,1410.37C1354.08,1403.71 1355.77,1397.53 1357.98,1391.99C1359.31,1388.68 1360.85,1385.47 1362.58,1382.38C1362.61,1382.32 1362.64,1382.26 1362.67,1382.21C1362.67,1382.21 1362.67,1382.2 1362.68,1382.2C1362.71,1382.15 1362.74,1382.09 1362.77,1382.03C1362.8,1381.98 1362.83,1381.92 1362.86,1381.87L1362.87,1381.86C1362.9,1381.8 1362.93,1381.75 1362.96,1381.7C1362.96,1381.69 1362.97,1381.69 1362.97,1381.69C1363,1381.63 1363.03,1381.58 1363.06,1381.53C1363.06,1381.53 1363.06,1381.52 1363.07,1381.51C1363.1,1381.46 1363.13,1381.41 1363.16,1381.36C1363.16,1381.36 1363.16,1381.35 1363.17,1381.34C1363.19,1381.3 1363.22,1381.24 1363.25,1381.2C1363.25,1381.19 1363.26,1381.18 1363.27,1381.17C1363.29,1381.12 1363.32,1381.07 1363.35,1381.02C1363.35,1381.02 1363.36,1381.01 1363.36,1381C1363.39,1380.96 1363.42,1380.91 1363.44,1380.86C1363.45,1380.85 1363.46,1380.84 1363.47,1380.83C1363.49,1380.78 1363.52,1380.74 1363.55,1380.69C1363.55,1380.68 1363.56,1380.67 1363.56,1380.66C1363.59,1380.61 1363.62,1380.57 1363.64,1380.52C1363.65,1380.51 1363.66,1380.5 1363.67,1380.49C1363.69,1380.45 1363.72,1380.4 1363.74,1380.36C1363.75,1380.35 1363.76,1380.33 1363.77,1380.32C1363.79,1380.28 1363.81,1380.24 1363.84,1380.2C1363.85,1380.18 1363.86,1380.16 1363.87,1380.15C1363.89,1380.11 1363.91,1380.07 1363.94,1380.03C1363.95,1380.01 1363.96,1380 1363.97,1379.98C1363.99,1379.94 1364.01,1379.91 1364.03,1379.87C1364.05,1379.85 1364.06,1379.83 1364.07,1379.81C1364.09,1379.78 1364.11,1379.75 1364.13,1379.72C1364.15,1379.69 1364.16,1379.66 1364.18,1379.64C1364.19,1379.61 1364.21,1379.58 1364.23,1379.56C1364.24,1379.53 1364.26,1379.5 1364.28,1379.47C1364.29,1379.45 1364.31,1379.42 1364.32,1379.4C1364.34,1379.37 1364.36,1379.33 1364.38,1379.3C1364.4,1379.28 1364.41,1379.26 1364.42,1379.23C1364.45,1379.2 1364.47,1379.17 1364.49,1379.13C1364.5,1379.12 1364.51,1379.1 1364.52,1379.08C1364.54,1379.04 1364.57,1379 1364.59,1378.97C1364.6,1378.95 1364.61,1378.94 1364.61,1378.93C1364.64,1378.88 1364.67,1378.84 1364.7,1378.8L1364.7,1378.79C1364.74,1378.73 1364.77,1378.68 1364.8,1378.63L1364.81,1378.62C1370.98,1368.79 1379.13,1360.19 1388.47,1353.06C1383.99,1359.04 1380.24,1365.54 1377.46,1372.52C1352.24,1435.68 1394.54,1582.26 1477.08,1582.26C1480.33,1582.26 1483.63,1582.03 1487,1581.56C1510.12,1578.35 1533.44,1576.74 1556.78,1576.74C1573.13,1576.74 1589.5,1577.53 1605.83,1579.12C1608.67,1579.4 1611.46,1579.53 1614.18,1579.53C1632.21,1579.53 1647.77,1573.64 1660.96,1563.72C1645.49,1583.67 1625.19,1597.28 1599.7,1598.85C1599.65,1598.85 1599.6,1598.86 1599.55,1598.86L1599.54,1598.86C1599.43,1598.87 1599.33,1598.87 1599.23,1598.88L1599.21,1598.88C1599.17,1598.88 1599.12,1598.88 1599.08,1598.89L1598.92,1598.89C1598.91,1598.89 1598.91,1598.89 1598.9,1598.9L1598.73,1598.9C1598.69,1598.91 1598.65,1598.91 1598.61,1598.91L1598.56,1598.91C1598.52,1598.91 1598.49,1598.92 1598.45,1598.92L1598.42,1598.92C1598.37,1598.92 1598.32,1598.92 1598.27,1598.93L1598.07,1598.93C1598.04,1598.94 1598.02,1598.94 1597.99,1598.94L1597.82,1598.94C1597.8,1598.94 1597.77,1598.95 1597.74,1598.95L1597.51,1598.95C1597.49,1598.96 1597.46,1598.96 1597.43,1598.96L1597.21,1598.96C1597.2,1598.97 1597.19,1598.97 1597.17,1598.97L1596.9,1598.97C1596.84,1598.98 1596.77,1598.98 1596.72,1598.98L1596.45,1598.98C1596.44,1598.98 1596.43,1598.98 1596.42,1598.99L1595.93,1598.99C1595.81,1599 1595.71,1599 1595.59,1599L1594.71,1599C1591.99,1599 1589.19,1598.87 1586.36,1598.59C1582.53,1598.22 1578.7,1597.89 1574.87,1597.61C1562.36,1596.68 1549.82,1596.21 1537.3,1596.21C1513.96,1596.21 1490.65,1597.83 1467.53,1601.03C1464.16,1601.5 1460.85,1601.73 1457.61,1601.73Z" style="fill:rgb(135,166,195);fill-rule:nonzero;"/>
        <path d="M1606.2,1386.21C1552.35,1382.02 1498.24,1382.02 1444.38,1386.21C1358.02,1392.92 1328.29,1535.67 1484.49,1557.07C1534.04,1563.86 1593.55,1560.3 1636.98,1533.4C1704.98,1491.26 1680.74,1392 1606.2,1386.21Z" style="fill:rgb(199,216,234);fill-rule:nonzero;"/>
        <path d="M1527.76,1557.69C1513.61,1557.69 1499.16,1556.7 1484.81,1554.73C1402.77,1543.49 1374.72,1499.17 1375.82,1461.43C1376.95,1422.84 1406.51,1391.52 1444.57,1388.56C1471.31,1386.48 1498.47,1385.43 1525.29,1385.43C1552.12,1385.43 1579.28,1386.48 1606.02,1388.56C1638.59,1391.09 1664.64,1413.34 1672.4,1445.23C1680.55,1478.72 1666.15,1512.54 1635.73,1531.39C1600.65,1553.13 1557.65,1557.69 1527.76,1557.69Z" style="fill:rgb(3,50,63);fill-rule:nonzero;"/>
        <path d="M1633.89,1370.71C1623.6,1370.71 1609.88,1369.25 1595.07,1367.47C1565.94,1363.7 1541.2,1359.77 1540.28,1351.6C1539.44,1344.95 1557.58,1337.2 1582.75,1337.2C1587.82,1337.2 1593.18,1337.52 1598.72,1338.22C1631.79,1342.28 1655.02,1358.05 1652.08,1365.54C1650.65,1369.33 1643.88,1370.71 1633.89,1370.71Z" style="fill:rgb(182,207,230);fill-rule:nonzero;"/>
        <path d="M1539.78,1461.94L1537.56,1488.75L1533.04,1488.75L1530.82,1461.94L1530.82,1451.88L1539.78,1451.88L1539.78,1461.94ZM1539.78,1502.22L1530.82,1502.22L1530.82,1495.48L1539.78,1495.48L1539.78,1502.22ZM1590.05,1507.7L1539.76,1420.6C1536.3,1414.61 1527.67,1414.61 1524.21,1420.6L1473.92,1507.7C1470.46,1513.69 1474.78,1521.17 1481.69,1521.17L1582.27,1521.17C1589.19,1521.17 1593.51,1513.69 1590.05,1507.7Z" style="fill:rgb(242,45,70);fill-rule:nonzero;"/>
    </g>
</svg>
