<?xml version="1.0" encoding="UTF-8" standalone="no"?>
<!DOCTYPE svg PUBLIC "-//W3C//DTD SVG 1.1//EN" "http://www.w3.org/Graphics/SVG/1.1/DTD/svg11.dtd">
<svg width="100%" height="100%" viewBox="0 0 425 325" version="1.1" xmlns="http://www.w3.org/2000/svg" xmlns:xlink="http://www.w3.org/1999/xlink" xml:space="preserve" xmlns:serif="http://www.serif.com/" style="fill-rule:evenodd;clip-rule:evenodd;stroke-linejoin:round;stroke-miterlimit:2;">
    <g transform="matrix(1,0,0,1,-266.344,-805.315)">
        <path d="M379.855,860.744C385.171,869.951 378.353,883.839 364.627,891.763C350.902,899.688 335.466,898.648 330.15,889.441C324.834,880.235 331.652,866.348 345.378,858.423C359.104,850.499 374.54,851.538 379.855,860.744Z" style="fill:rgb(3,50,63);fill-rule:nonzero;"/>
        <path d="M340.452,874.572C338.365,872.114 333.121,862.845 316.984,834.088L328.032,825.748C340.636,838.387 356.883,855.015 359.543,857.469C360,857.89 340.452,874.572 340.452,874.572Z" style="fill:rgb(3,50,63);fill-rule:nonzero;"/>
        <path d="M338.488,825.679C338.488,836.809 329.465,845.833 318.335,845.833C307.205,845.833 298.182,836.809 298.182,825.679C298.182,814.549 307.205,805.526 318.335,805.526C329.465,805.526 338.488,814.549 338.488,825.679Z" style="fill:rgb(199,216,234);fill-rule:nonzero;"/>
        <path d="M318.265,845.833L318.239,845.833L318.265,845.833ZM318.194,845.832L318.165,845.832L318.194,845.832ZM318.123,845.832C318.113,845.832 318.104,845.832 318.095,845.831C318.104,845.832 318.113,845.832 318.123,845.832ZM318.051,845.831C318.042,845.831 318.032,845.831 318.023,845.83C318.032,845.831 318.042,845.831 318.051,845.831ZM317.975,845.83C317.968,845.83 317.961,845.829 317.954,845.829C317.961,845.829 317.968,845.83 317.975,845.83ZM317.737,845.824L317.728,845.824L317.737,845.824ZM317.663,845.822L317.656,845.822L317.663,845.822ZM317.587,845.819L317.583,845.819L317.587,845.819ZM317.659,805.537L317.66,805.537L317.659,805.537ZM317.955,805.53L317.971,805.53L317.955,805.53ZM318.025,805.529C318.033,805.529 318.041,805.528 318.049,805.528C318.041,805.528 318.033,805.529 318.025,805.529ZM318.095,805.528C318.104,805.528 318.113,805.528 318.122,805.527C318.113,805.528 318.103,805.528 318.095,805.528ZM318.168,805.527L318.193,805.527L318.168,805.527ZM318.24,805.527C318.248,805.526 318.257,805.526 318.265,805.526C318.256,805.526 318.248,805.526 318.24,805.527Z" style="fill:rgb(213,222,226);fill-rule:nonzero;"/>
        <path d="M318.335,845.833L318.239,845.833C318.224,845.833 318.209,845.832 318.194,845.832L318.123,845.832C318.113,845.832 318.104,845.832 318.095,845.831L318.051,845.831C318.042,845.831 318.032,845.831 318.023,845.83L317.975,845.83C317.968,845.83 317.961,845.829 317.954,845.829C317.882,845.828 317.809,845.826 317.737,845.824L317.728,845.824C317.707,845.823 317.685,845.823 317.663,845.822L317.656,845.822C317.633,845.821 317.61,845.82 317.587,845.819L317.583,845.819C316.24,845.77 314.931,845.589 313.668,845.289C322.547,843.184 329.153,835.203 329.153,825.679C329.153,816.156 322.547,808.176 313.668,806.07C314.955,805.765 316.29,805.583 317.659,805.537L317.66,805.537C317.758,805.534 317.857,805.532 317.955,805.53L317.971,805.53C317.989,805.529 318.007,805.529 318.025,805.529C318.033,805.529 318.041,805.528 318.049,805.528L318.095,805.528C318.103,805.528 318.113,805.528 318.122,805.527L318.24,805.527C318.248,805.526 318.256,805.526 318.265,805.526L318.335,805.526C329.465,805.526 338.488,814.549 338.488,825.679C338.488,828.773 337.791,831.704 336.546,834.323C333.991,839.695 329.13,843.758 323.242,845.231C321.671,845.624 320.027,845.833 318.335,845.833Z" style="fill:rgb(166,188,207);fill-rule:nonzero;"/>
        <path d="M313.668,845.289C334.528,849.37 346.331,823.066 330.494,810.284C325.937,806.524 319.631,804.905 313.668,806.07C325.803,802.548 339.07,811.73 339.164,825.679C339.063,839.481 325.912,848.837 313.668,845.289Z" style="fill:rgb(3,50,63);fill-rule:nonzero;"/>
        <path d="M310.015,832.41C305.421,832.41 301.696,828.685 301.696,824.09C301.696,819.496 305.421,815.771 310.015,815.771C314.61,815.771 318.335,819.496 318.335,824.09C318.335,828.685 314.61,832.41 310.015,832.41Z" style="fill:rgb(219,231,243);fill-rule:nonzero;"/>
        <path d="M580.45,863.313C575.135,872.52 581.954,886.407 595.679,894.332C609.404,902.257 624.841,901.218 630.156,892.01C635.472,882.804 628.654,868.917 614.928,860.992C601.202,853.068 585.766,854.107 580.45,863.313Z" style="fill:rgb(3,50,63);fill-rule:nonzero;"/>
        <path d="M619.853,877.142C621.941,874.683 627.185,865.414 643.322,836.656L632.274,828.317C618.891,841.737 602.087,858.705 601.242,859.2L619.853,877.142Z" style="fill:rgb(3,50,63);fill-rule:nonzero;"/>
        <path d="M621.818,828.248C621.818,839.379 630.841,848.401 641.971,848.401C653.101,848.401 662.124,839.379 662.124,828.248C662.124,817.118 653.101,808.095 641.971,808.095C630.841,808.095 621.818,817.118 621.818,828.248Z" style="fill:rgb(199,216,234);fill-rule:nonzero;"/>
        <path d="M642.04,848.401L642.067,848.401L642.04,848.401ZM642.112,848.401L642.14,848.401L642.112,848.401ZM642.184,848.4L642.21,848.4L642.184,848.4ZM642.255,848.399L642.282,848.399L642.255,848.399ZM642.331,848.398L642.351,848.398L642.331,848.398ZM642.567,848.393C642.572,848.393 642.577,848.392 642.581,848.392C642.577,848.392 642.572,848.393 642.567,848.393ZM642.64,848.39L642.654,848.39L642.64,848.39ZM642.714,848.388C642.718,848.388 642.722,848.388 642.726,848.387C642.722,848.388 642.718,848.388 642.714,848.388ZM642.792,848.385L642.797,848.385L642.792,848.385ZM645.928,848.013C645.932,848.012 645.935,848.011 645.939,848.011C645.936,848.011 645.932,848.012 645.928,848.013ZM645.992,848C646,847.998 646.007,847.997 646.015,847.995C646.007,847.997 646,847.999 645.992,848ZM646.052,847.988C646.065,847.985 646.077,847.983 646.09,847.98C646.077,847.983 646.065,847.985 646.052,847.988ZM646.104,847.977C646.283,847.94 646.461,847.9 646.639,847.858C646.461,847.9 646.283,847.94 646.104,847.977ZM646.639,808.639C646.561,808.62 646.483,808.602 646.405,808.585C646.483,808.602 646.561,808.62 646.639,808.639ZM646.376,808.578C646.369,808.577 646.361,808.575 646.354,808.573C646.361,808.575 646.369,808.577 646.376,808.578ZM642.348,808.099L642.343,808.099L642.348,808.099ZM642.278,808.098C642.272,808.098 642.266,808.098 642.261,808.097C642.267,808.098 642.272,808.098 642.278,808.098ZM642.209,808.097L642.185,808.097L642.209,808.097ZM642.137,808.096L642.113,808.096L642.137,808.096ZM642.066,808.096L642.041,808.096L642.066,808.096Z" style="fill:rgb(213,222,226);fill-rule:nonzero;"/>
        <path d="M641.971,848.401C640.279,848.401 638.635,848.193 637.064,847.8C631.169,846.325 626.303,842.254 623.751,836.873C622.511,834.258 621.818,831.335 621.818,828.248C621.818,817.118 630.841,808.095 641.971,808.095C641.994,808.095 642.017,808.095 642.041,808.096L642.137,808.096C642.153,808.096 642.169,808.096 642.185,808.097L642.261,808.097C642.266,808.098 642.272,808.098 642.278,808.098C642.299,808.098 642.321,808.098 642.343,808.099L642.348,808.099C643.721,808.124 645.061,808.287 646.354,808.573C646.361,808.575 646.369,808.577 646.376,808.578C646.386,808.581 646.396,808.583 646.405,808.585C646.483,808.602 646.561,808.62 646.639,808.639C637.759,810.745 631.153,818.725 631.153,828.248C631.153,837.773 637.759,845.752 646.639,847.858C646.461,847.9 646.283,847.94 646.104,847.977C646.099,847.978 646.094,847.979 646.09,847.98C646.077,847.983 646.065,847.985 646.052,847.988C646.04,847.99 646.027,847.993 646.015,847.995C646.007,847.997 646,847.998 645.992,848C645.975,848.004 645.957,848.007 645.939,848.011C645.935,848.011 645.932,848.012 645.928,848.013C644.91,848.215 643.864,848.342 642.797,848.385L642.792,848.385C642.77,848.386 642.748,848.387 642.726,848.387C642.722,848.388 642.718,848.388 642.714,848.388C642.694,848.389 642.674,848.389 642.654,848.39L642.64,848.39C642.621,848.391 642.601,848.392 642.581,848.392C642.577,848.392 642.572,848.393 642.567,848.393C642.496,848.395 642.423,848.396 642.351,848.398L642.331,848.398C642.315,848.398 642.299,848.399 642.282,848.399L642.255,848.399C642.24,848.4 642.225,848.4 642.21,848.4L642.184,848.4C642.169,848.4 642.154,848.401 642.14,848.401L641.971,848.401Z" style="fill:rgb(166,188,207);fill-rule:nonzero;"/>
        <path d="M646.639,847.858C625.778,851.938 613.976,825.635 629.812,812.854C634.369,809.093 640.675,807.475 646.639,808.639C634.503,805.118 621.236,814.299 621.142,828.249C621.243,842.05 634.396,851.407 646.639,847.858Z" style="fill:rgb(3,50,63);fill-rule:nonzero;"/>
        <path d="M650.29,834.979C645.696,834.979 641.971,831.254 641.971,826.659C641.971,822.065 645.696,818.341 650.29,818.341C654.886,818.341 658.61,822.065 658.61,826.659C658.61,831.254 654.886,834.979 650.29,834.979Z" style="fill:rgb(219,231,243);fill-rule:nonzero;"/>
        <path d="M266.344,994.22C266.344,1046.86 361.363,1089.54 478.576,1089.54C595.789,1089.54 690.809,1046.86 690.809,994.22C690.809,941.58 595.789,898.907 478.576,898.907C361.363,898.907 266.344,941.58 266.344,994.22Z" style="fill:rgb(3,50,63);fill-rule:nonzero;"/>
        <path d="M666.033,1038.95C662.269,1042.13 658.116,1045.19 653.603,1048.14C664.598,1016.52 669.36,981.402 668.209,951.375C671.677,954.464 674.78,957.65 677.496,960.921C677.398,985.676 673.644,1013.02 666.033,1038.95Z" style="fill:rgb(162,191,220);fill-rule:nonzero;"/>
        <path d="M279.714,960.85C282.443,957.572 285.562,954.38 289.046,951.284C287.265,981.594 293.341,1017.32 305.458,1049.37C300.758,1046.4 296.428,1043.3 292.498,1040.1C284.009,1013.66 279.586,985.857 279.714,960.85Z" style="fill:rgb(162,191,220);fill-rule:nonzero;"/>
        <path d="M420.892,1129.23C460.202,1123.78 500.084,1122.94 539.717,1126.79C630.869,1135.65 663.308,999.12 650.308,930.405C643.681,895.366 604.632,870.257 571.66,862.459C511.904,848.326 448.067,847.434 388.003,860.042C355.773,866.906 323.896,888.769 311.346,920.192C285.133,985.838 331.853,1141.59 420.892,1129.23Z" style="fill:rgb(162,191,220);fill-rule:nonzero;"/>
        <path d="M410.966,1129.93L410.968,1129.93L410.966,1129.93ZM410.946,1129.93C373.336,1129.92 344.084,1099.47 325.768,1060.37L325.775,1060.37C344.088,1099.48 373.338,1129.91 410.946,1129.93ZM547.174,1127.2C544.799,1127.17 542.383,1127.04 539.923,1126.81C542.379,1127.04 544.802,1127.17 547.174,1127.2ZM539.717,1126.79C529.003,1125.75 518.268,1125.05 507.535,1124.69C518.271,1125.05 529.001,1125.75 539.717,1126.79ZM306.251,938.573C307.443,931.908 309.135,925.729 311.346,920.192C309.135,925.729 307.443,931.908 306.251,938.573ZM311.346,920.192C312.987,916.082 314.959,912.136 317.219,908.366C314.959,912.136 312.988,916.082 311.346,920.192ZM317.225,908.357C317.257,908.303 317.288,908.251 317.321,908.197C317.288,908.251 317.257,908.303 317.225,908.357ZM317.326,908.189C317.357,908.137 317.388,908.086 317.419,908.035C317.387,908.087 317.358,908.136 317.326,908.189ZM317.429,908.018C317.459,907.969 317.488,907.921 317.518,907.872C317.488,907.921 317.459,907.969 317.429,908.018ZM317.532,907.849C317.559,907.805 317.585,907.761 317.612,907.717C317.586,907.76 317.558,907.805 317.532,907.849ZM317.636,907.678C317.663,907.634 317.69,907.59 317.716,907.547C317.691,907.589 317.662,907.636 317.636,907.678ZM317.738,907.512C317.762,907.472 317.788,907.431 317.813,907.391C317.788,907.431 317.763,907.472 317.738,907.512ZM317.844,907.341C317.864,907.307 317.886,907.273 317.906,907.239C317.886,907.272 317.864,907.308 317.844,907.341ZM317.948,907.172C317.966,907.143 317.984,907.114 318.003,907.085C317.984,907.114 317.967,907.142 317.948,907.172ZM318.053,907.003C318.069,906.978 318.085,906.953 318.1,906.928C318.084,906.954 318.07,906.977 318.053,907.003ZM318.158,906.837C318.171,906.816 318.183,906.796 318.196,906.775C318.183,906.796 318.171,906.816 318.158,906.837ZM318.264,906.668C318.271,906.656 318.279,906.644 318.286,906.633C318.279,906.644 318.271,906.657 318.264,906.668ZM318.369,906.502C318.373,906.496 318.377,906.489 318.381,906.483C318.378,906.488 318.373,906.496 318.369,906.502Z" style="fill:rgb(213,222,226);fill-rule:nonzero;"/>
        <path d="M325.775,1060.37L325.768,1060.37C307.413,1021.18 300.045,973.284 306.251,938.573C300.046,973.279 307.426,1021.18 325.775,1060.37Z" style="fill:rgb(3,44,57);fill-rule:nonzero;"/>
        <path d="M410.968,1129.93L410.946,1129.93C373.338,1129.91 344.088,1099.48 325.775,1060.37C307.426,1021.18 300.046,973.279 306.251,938.573C307.443,931.908 309.135,925.729 311.346,920.192C312.988,916.082 314.959,912.136 317.219,908.366C317.221,908.363 317.223,908.36 317.225,908.357C317.257,908.303 317.288,908.251 317.321,908.197C317.322,908.194 317.324,908.191 317.326,908.189C317.358,908.136 317.387,908.087 317.419,908.035C317.422,908.03 317.426,908.023 317.429,908.018C317.459,907.969 317.488,907.921 317.518,907.872C317.523,907.864 317.527,907.857 317.532,907.849C317.558,907.805 317.586,907.76 317.612,907.717C317.62,907.704 317.628,907.691 317.636,907.678C317.662,907.636 317.691,907.589 317.716,907.547C317.724,907.535 317.731,907.524 317.738,907.512C317.763,907.472 317.788,907.431 317.813,907.391C317.823,907.374 317.833,907.358 317.844,907.341C317.864,907.308 317.886,907.272 317.906,907.239C317.92,907.217 317.934,907.194 317.948,907.172C317.967,907.142 317.984,907.114 318.003,907.085C318.019,907.058 318.037,907.03 318.053,907.003C318.07,906.977 318.084,906.954 318.1,906.928C318.12,906.897 318.138,906.868 318.158,906.837C318.171,906.816 318.183,906.796 318.196,906.775C318.219,906.739 318.241,906.704 318.264,906.668C318.271,906.657 318.279,906.644 318.286,906.633C318.314,906.59 318.342,906.545 318.369,906.502C318.373,906.496 318.378,906.488 318.381,906.483C324.533,896.791 332.602,888.312 341.832,881.26C337.347,887.236 333.606,893.741 330.819,900.719C305.6,963.878 347.902,1110.45 430.439,1110.45C433.69,1110.45 436.99,1110.23 440.365,1109.76C463.48,1106.55 486.799,1104.94 510.142,1104.94C526.498,1104.94 542.861,1105.73 559.19,1107.32C562.03,1107.59 564.816,1107.73 567.543,1107.73C585.576,1107.73 601.129,1101.84 614.326,1091.92C597.86,1113.15 575.917,1127.2 548.071,1127.2L547.174,1127.2C544.802,1127.17 542.379,1127.04 539.923,1126.81C539.855,1126.8 539.785,1126.8 539.717,1126.79C529.001,1125.75 518.271,1125.05 507.535,1124.69C501.913,1124.51 496.289,1124.41 490.667,1124.41C467.321,1124.41 444.009,1126.02 420.892,1129.23C417.523,1129.7 414.214,1129.93 410.968,1129.93Z" style="fill:rgb(135,166,195);fill-rule:nonzero;"/>
        <path d="M559.563,914.407C505.707,910.221 451.605,910.221 397.747,914.407C311.382,921.119 281.647,1063.87 437.855,1085.27C487.408,1092.05 546.91,1088.5 590.338,1061.6C658.341,1019.46 634.099,920.2 559.563,914.407Z" style="fill:rgb(199,216,234);fill-rule:nonzero;"/>
        <path d="M481.121,1085.89C466.973,1085.89 452.524,1084.9 438.175,1082.93C356.13,1071.69 328.078,1027.36 329.184,989.627C330.314,951.043 359.869,919.716 397.93,916.758C424.67,914.679 451.832,913.625 478.653,913.625L478.656,913.625C505.478,913.625 532.638,914.679 559.381,916.758C591.949,919.289 618.005,941.535 625.763,973.432C633.908,1006.92 619.516,1040.74 589.096,1059.59C554.011,1081.33 511.016,1085.89 481.124,1085.89L481.121,1085.89Z" style="fill:rgb(3,50,63);fill-rule:nonzero;"/>
        <path d="M587.256,898.906C576.957,898.906 563.237,897.445 548.431,895.666C519.3,891.898 494.56,887.971 493.641,879.798C492.8,873.152 510.942,865.403 536.106,865.403C541.177,865.403 546.536,865.718 552.079,866.42C585.147,870.483 608.382,886.252 605.441,893.743C604.013,897.533 597.243,898.906 587.256,898.906Z" style="fill:rgb(182,207,230);fill-rule:nonzero;"/>
        <path d="M479.074,1044.57C401.409,1004.85 422.002,954.455 449.04,954.237L449.3,954.237C465.584,954.237 474.055,966.403 474.451,966.987L478.505,973.1L482.47,966.91C482.553,966.779 490.992,953.903 507.666,953.77L507.853,953.77C521.74,953.77 532.287,966.027 532.417,982.367C532.518,995.034 525.659,1019.8 479.074,1044.57ZM542,982.291C541.705,945.338 502.457,932 478.376,956.897C453.93,932.41 414.87,946.305 415.164,983.301C415.521,1028.07 478.294,1054.57 479.16,1055.34C479.878,1054.68 542.352,1026.64 542,982.291Z" style="fill:rgb(255,0,122);fill-rule:nonzero;"/>
    </g>
</svg>
