<?xml version="1.0" encoding="UTF-8" standalone="no"?>
<!DOCTYPE svg PUBLIC "-//W3C//DTD SVG 1.1//EN" "http://www.w3.org/Graphics/SVG/1.1/DTD/svg11.dtd">
<svg width="100%" height="100%" viewBox="0 0 425 325" version="1.1" xmlns="http://www.w3.org/2000/svg" xmlns:xlink="http://www.w3.org/1999/xlink" xml:space="preserve" xmlns:serif="http://www.serif.com/" style="fill-rule:evenodd;clip-rule:evenodd;stroke-linejoin:round;stroke-miterlimit:2;">
    <g transform="matrix(1,0,0,1,-789.662,-805.347)">
        <path d="M903.174,860.776C908.489,869.983 901.672,883.871 887.946,891.795C874.221,899.72 858.784,898.68 853.469,889.473C848.154,880.266 854.971,866.379 868.697,858.455C882.423,850.53 897.858,851.57 903.174,860.776Z" style="fill:rgb(3,50,63);fill-rule:nonzero;"/>
        <path d="M863.772,874.604C861.684,872.146 856.44,862.877 840.303,834.119L851.352,825.78C864.734,839.2 881.539,856.168 882.383,856.663L863.772,874.604Z" style="fill:rgb(3,50,63);fill-rule:nonzero;"/>
        <path d="M861.807,825.711C861.807,836.841 852.784,845.864 841.654,845.864C830.524,845.864 821.501,836.841 821.501,825.711C821.501,814.581 830.524,805.558 841.654,805.558C852.784,805.558 861.807,814.581 861.807,825.711Z" style="fill:rgb(199,216,234);fill-rule:nonzero;"/>
        <path d="M841.584,845.864L841.557,845.864L841.584,845.864ZM841.514,845.864C841.503,845.864 841.492,845.863 841.482,845.863C841.492,845.863 841.503,845.864 841.514,845.864ZM841.444,845.863L841.411,845.863L841.444,845.863ZM841.375,845.862L841.338,845.862L841.375,845.862ZM841.306,845.861L841.269,845.861L841.306,845.861ZM841.234,845.86C841.222,845.86 841.211,845.859 841.199,845.859C841.21,845.859 841.223,845.86 841.234,845.86ZM841.192,845.859C841.157,845.858 841.122,845.857 841.088,845.856C841.123,845.857 841.157,845.858 841.192,845.859ZM841.066,845.856C841.05,845.855 841.035,845.855 841.019,845.854C841.035,845.855 841.051,845.855 841.066,845.856ZM840.998,845.854C840.982,845.853 840.966,845.853 840.951,845.852C840.967,845.853 840.982,845.853 840.998,845.854ZM840.93,845.851C840.914,845.851 840.898,845.85 840.882,845.85C840.898,845.85 840.914,845.851 840.93,845.851ZM840.864,845.849C840.847,845.848 840.829,845.848 840.812,845.847C840.829,845.848 840.847,845.848 840.864,845.849ZM840.807,845.847C839.497,845.793 838.22,845.614 836.986,845.321C838.22,845.613 839.498,845.792 840.807,845.847ZM840.978,805.569L840.979,805.569L840.978,805.569ZM841.274,805.562C841.28,805.562 841.285,805.562 841.29,805.561C841.285,805.562 841.28,805.562 841.274,805.562ZM841.345,805.561C841.352,805.56 841.36,805.56 841.368,805.56C841.36,805.56 841.352,805.56 841.345,805.561ZM841.414,805.56C841.423,805.56 841.432,805.559 841.441,805.559C841.432,805.559 841.423,805.56 841.414,805.56ZM841.488,805.559L841.512,805.559L841.488,805.559ZM841.559,805.558L841.584,805.558L841.559,805.558Z" style="fill:rgb(213,222,226);fill-rule:nonzero;"/>
        <path d="M841.654,845.864L841.514,845.864C841.503,845.864 841.492,845.863 841.482,845.863L841.411,845.863C841.399,845.863 841.387,845.862 841.375,845.862L841.338,845.862C841.328,845.862 841.317,845.861 841.306,845.861L841.269,845.861C841.257,845.86 841.246,845.86 841.234,845.86C841.223,845.86 841.21,845.859 841.199,845.859L841.192,845.859C841.157,845.858 841.123,845.857 841.088,845.856L841.066,845.856C841.051,845.855 841.035,845.855 841.019,845.854L840.998,845.854C840.982,845.853 840.967,845.853 840.951,845.852C840.944,845.852 840.937,845.852 840.93,845.851C840.914,845.851 840.898,845.85 840.882,845.85C840.876,845.849 840.87,845.849 840.864,845.849C840.847,845.848 840.829,845.848 840.812,845.847L840.807,845.847C839.498,845.792 838.22,845.613 836.987,845.321C845.866,843.216 852.472,835.235 852.472,825.711C852.472,816.188 845.866,808.207 836.986,806.102C838.274,805.797 839.609,805.615 840.978,805.569L840.979,805.569C841.077,805.566 841.176,805.564 841.274,805.562C841.28,805.562 841.285,805.562 841.29,805.561L841.345,805.561C841.352,805.56 841.36,805.56 841.368,805.56L841.414,805.56C841.423,805.56 841.432,805.559 841.441,805.559L841.512,805.559C841.528,805.559 841.543,805.559 841.559,805.558L841.654,805.558C852.784,805.558 861.807,814.581 861.807,825.711C861.807,828.797 861.114,831.721 859.874,834.336C857.321,839.717 852.455,843.788 846.56,845.263C844.99,845.656 843.346,845.864 841.654,845.864Z" style="fill:rgb(166,188,207);fill-rule:nonzero;"/>
        <path d="M836.986,845.321C857.848,849.401 869.65,823.098 853.813,810.316C849.256,806.556 842.95,804.937 836.986,806.102C849.122,802.58 862.389,811.762 862.483,825.711C862.383,839.512 849.23,848.869 836.986,845.321Z" style="fill:rgb(3,50,63);fill-rule:nonzero;"/>
        <path d="M833.335,832.442C828.74,832.442 825.015,828.716 825.015,824.122C825.015,819.527 828.74,815.803 833.335,815.803C837.929,815.803 841.654,819.527 841.654,824.122C841.654,828.716 837.929,832.442 833.335,832.442Z" style="fill:rgb(219,231,243);fill-rule:nonzero;"/>
        <path d="M1103.77,863.345C1098.45,872.552 1105.27,886.439 1119,894.364C1132.72,902.289 1148.16,901.249 1153.48,892.042C1158.79,882.836 1151.97,868.949 1138.25,861.023C1124.52,853.099 1109.09,854.138 1103.77,863.345Z" style="fill:rgb(3,50,63);fill-rule:nonzero;"/>
        <path d="M1143.17,877.173C1145.26,874.715 1150.5,865.445 1166.64,836.688L1155.59,828.348C1142.21,841.769 1125.41,858.737 1124.56,859.232L1143.17,877.173Z" style="fill:rgb(3,50,63);fill-rule:nonzero;"/>
        <path d="M1145.14,828.28C1145.14,839.41 1154.16,848.433 1165.29,848.433C1176.42,848.433 1185.44,839.41 1185.44,828.28C1185.44,817.15 1176.42,808.127 1165.29,808.127C1154.16,808.127 1145.14,817.15 1145.14,828.28Z" style="fill:rgb(199,216,234);fill-rule:nonzero;"/>
        <path d="M1165.36,848.433L1165.39,848.433L1165.36,848.433ZM1165.43,848.433C1165.44,848.433 1165.45,848.433 1165.46,848.432C1165.45,848.433 1165.44,848.433 1165.43,848.433ZM1165.5,848.432L1165.53,848.432L1165.5,848.432ZM1165.57,848.431L1165.6,848.431L1165.57,848.431ZM1165.65,848.43L1165.67,848.43L1165.65,848.43ZM1165.89,848.425C1165.89,848.424 1165.89,848.424 1165.9,848.424C1165.9,848.424 1165.89,848.424 1165.89,848.425ZM1165.96,848.422L1165.97,848.422L1165.96,848.422ZM1166.04,848.42L1166.04,848.419L1166.04,848.42ZM1169.95,847.893C1169.95,847.892 1169.95,847.891 1169.96,847.89C1169.95,847.891 1169.95,847.892 1169.95,847.893ZM1165.6,808.129L1165.58,808.129L1165.6,808.129ZM1165.53,808.128L1165.51,808.128L1165.53,808.128ZM1165.46,808.127L1165.43,808.127L1165.46,808.127ZM1165.39,808.127L1165.36,808.127L1165.39,808.127Z" style="fill:rgb(213,222,226);fill-rule:nonzero;"/>
        <path d="M1165.29,848.433C1163.6,848.433 1161.95,848.225 1160.38,847.831C1154.49,846.356 1149.62,842.286 1147.07,836.904C1145.83,834.29 1145.14,831.366 1145.14,828.28C1145.14,817.15 1154.16,808.127 1165.29,808.127L1165.46,808.127C1165.47,808.128 1165.49,808.128 1165.51,808.128L1165.53,808.128C1165.55,808.128 1165.56,808.129 1165.58,808.129L1165.6,808.129C1165.62,808.129 1165.64,808.13 1165.67,808.13C1167.14,808.157 1168.58,808.343 1169.96,808.671C1161.08,810.776 1154.47,818.756 1154.47,828.28C1154.47,837.803 1161.08,845.783 1169.96,847.89C1169.95,847.891 1169.95,847.892 1169.95,847.893C1168.69,848.19 1167.38,848.37 1166.04,848.419L1166.04,848.42C1166.02,848.42 1165.99,848.421 1165.97,848.422L1165.96,848.422C1165.94,848.423 1165.92,848.424 1165.9,848.424C1165.89,848.424 1165.89,848.424 1165.89,848.425C1165.82,848.427 1165.74,848.428 1165.67,848.43L1165.65,848.43C1165.64,848.43 1165.62,848.431 1165.6,848.431L1165.57,848.431C1165.56,848.431 1165.55,848.432 1165.53,848.432L1165.46,848.432C1165.45,848.433 1165.44,848.433 1165.43,848.433L1165.29,848.433Z" style="fill:rgb(166,188,207);fill-rule:nonzero;"/>
        <path d="M1169.96,847.89C1149.1,851.97 1137.29,825.667 1153.13,812.885C1157.69,809.125 1163.99,807.506 1169.96,808.67C1157.82,805.149 1144.56,814.331 1144.46,828.28C1144.56,842.082 1157.71,851.438 1169.96,847.89Z" style="fill:rgb(3,50,63);fill-rule:nonzero;"/>
        <path d="M1173.61,835.011C1169.02,835.011 1165.29,831.286 1165.29,826.691C1165.29,822.097 1169.02,818.372 1173.61,818.372C1178.2,818.372 1181.93,822.097 1181.93,826.691C1181.93,831.286 1178.2,835.011 1173.61,835.011Z" style="fill:rgb(219,231,243);fill-rule:nonzero;"/>
        <path d="M789.662,994.22C789.662,1046.86 884.682,1089.54 1001.89,1089.54C1119.11,1089.54 1214.13,1046.86 1214.13,994.22C1214.13,941.58 1119.11,898.907 1001.89,898.907C884.682,898.907 789.662,941.58 789.662,994.22Z" style="fill:rgb(3,50,63);fill-rule:nonzero;"/>
        <path d="M1189.35,1038.95C1185.59,1042.13 1181.43,1045.19 1176.92,1048.14C1187.92,1016.52 1192.68,981.402 1191.53,951.375C1195,954.464 1198.1,957.65 1200.81,960.921C1200.72,985.676 1196.96,1013.02 1189.35,1038.95Z" style="fill:rgb(162,191,220);fill-rule:nonzero;"/>
        <path d="M803.034,960.85C805.762,957.572 808.881,954.38 812.365,951.284C810.584,981.594 816.659,1017.32 828.777,1049.37C824.077,1046.4 819.747,1043.3 815.817,1040.1C807.328,1013.66 802.905,985.857 803.034,960.85Z" style="fill:rgb(162,191,220);fill-rule:nonzero;"/>
        <path d="M944.211,1129.23C983.521,1123.78 1023.4,1122.94 1063.04,1126.79C1154.19,1135.65 1186.63,999.12 1173.63,930.405C1167,895.366 1127.95,870.257 1094.98,862.459C1035.22,848.326 971.386,847.434 911.322,860.042C879.093,866.906 847.215,888.769 834.665,920.192C808.453,985.838 855.172,1141.59 944.211,1129.23Z" style="fill:rgb(162,191,220);fill-rule:nonzero;"/>
        <path d="M934.285,1129.93L934.287,1129.93L934.285,1129.93ZM934.265,1129.93C896.655,1129.92 867.404,1099.48 849.087,1060.37L849.094,1060.37C867.408,1099.48 896.657,1129.91 934.265,1129.93ZM1070.75,1127.2C1068.23,1127.18 1065.66,1127.05 1063.03,1126.79C1051.77,1125.7 1040.48,1124.98 1029.2,1124.64C1040.49,1124.98 1051.77,1125.7 1063.04,1126.79C1065.65,1127.04 1068.23,1127.18 1070.75,1127.2ZM829.57,938.572C830.762,931.908 832.454,925.729 834.665,920.192C832.454,925.729 830.762,931.908 829.571,938.572L829.57,938.572ZM834.665,920.192C834.714,920.07 834.764,919.946 834.813,919.824C834.763,919.947 834.714,920.069 834.665,920.192ZM834.817,919.814C834.841,919.756 834.864,919.7 834.887,919.642C834.864,919.699 834.84,919.757 834.817,919.814ZM834.9,919.611C834.921,919.56 834.942,919.509 834.963,919.458C834.941,919.51 834.921,919.559 834.9,919.611ZM834.969,919.442C834.992,919.386 835.015,919.331 835.038,919.276C835.015,919.331 834.992,919.386 834.969,919.442ZM835.048,919.251C835.07,919.198 835.092,919.146 835.114,919.093C835.091,919.146 835.07,919.197 835.048,919.251ZM835.124,919.069C835.146,919.016 835.167,918.964 835.189,918.912C835.168,918.963 835.145,919.017 835.124,919.069ZM835.204,918.876C835.225,918.827 835.246,918.777 835.266,918.729C835.246,918.778 835.225,918.827 835.204,918.876ZM835.278,918.701C835.299,918.65 835.322,918.598 835.343,918.547C835.321,918.599 835.3,918.65 835.278,918.701ZM835.358,918.514C835.379,918.464 835.4,918.415 835.421,918.365C835.4,918.414 835.379,918.464 835.358,918.514ZM835.432,918.338C835.455,918.287 835.477,918.234 835.499,918.183C835.477,918.234 835.454,918.287 835.432,918.338ZM835.509,918.161C835.532,918.108 835.555,918.055 835.578,918.001C835.555,918.054 835.532,918.108 835.509,918.161ZM835.587,917.98C835.61,917.927 835.634,917.873 835.657,917.82C835.634,917.873 835.61,917.928 835.587,917.98ZM835.666,917.799C835.689,917.746 835.713,917.693 835.736,917.639C835.713,917.692 835.689,917.747 835.666,917.799ZM835.745,917.618C835.769,917.565 835.792,917.512 835.816,917.459C835.792,917.512 835.769,917.565 835.745,917.618ZM835.826,917.436C835.849,917.384 835.873,917.331 835.896,917.279C835.872,917.331 835.849,917.383 835.826,917.436ZM835.906,917.255C835.93,917.203 835.953,917.151 835.976,917.099C835.952,917.152 835.93,917.202 835.906,917.255ZM835.989,917.071C836.011,917.021 836.034,916.97 836.057,916.919C836.034,916.97 836.011,917.02 835.989,917.071ZM836.07,916.891C836.093,916.84 836.115,916.791 836.138,916.74C836.115,916.791 836.093,916.84 836.07,916.891ZM836.153,916.708C836.175,916.659 836.197,916.611 836.219,916.562C836.196,916.612 836.176,916.658 836.153,916.708ZM836.235,916.527C836.257,916.479 836.279,916.431 836.301,916.383C836.28,916.43 836.257,916.48 836.235,916.527ZM836.319,916.345C836.34,916.299 836.362,916.251 836.384,916.205C836.362,916.252 836.34,916.298 836.319,916.345ZM836.403,916.164C836.424,916.118 836.445,916.073 836.466,916.027C836.445,916.072 836.424,916.119 836.403,916.164ZM836.487,915.983C836.508,915.939 836.529,915.893 836.55,915.849C836.529,915.893 836.508,915.938 836.487,915.983ZM836.57,915.806C836.591,915.761 836.612,915.716 836.633,915.672C836.613,915.715 836.59,915.763 836.57,915.806ZM836.656,915.623C836.676,915.58 836.696,915.538 836.717,915.495C836.697,915.537 836.676,915.58 836.656,915.623ZM836.741,915.444C836.761,915.402 836.781,915.36 836.801,915.318C836.781,915.361 836.761,915.402 836.741,915.444ZM836.828,915.262C836.847,915.222 836.866,915.182 836.885,915.142C836.866,915.183 836.847,915.222 836.828,915.262ZM836.913,915.084C836.932,915.044 836.951,915.006 836.97,914.966C836.951,915.005 836.932,915.045 836.913,915.084ZM837,914.904C837.019,914.866 837.038,914.827 837.056,914.789C837.037,914.828 837.019,914.865 837,914.904ZM837.086,914.728C837.105,914.69 837.123,914.652 837.142,914.613C837.123,914.652 837.105,914.689 837.086,914.728ZM837.174,914.548C837.192,914.511 837.21,914.475 837.228,914.438C837.21,914.475 837.192,914.511 837.174,914.548ZM837.26,914.373C837.278,914.336 837.297,914.299 837.315,914.262C837.297,914.299 837.279,914.336 837.26,914.373ZM837.349,914.194C837.366,914.158 837.384,914.123 837.402,914.087C837.384,914.122 837.366,914.159 837.349,914.194ZM837.436,914.018C837.454,913.983 837.472,913.948 837.489,913.913C837.471,913.948 837.454,913.983 837.436,914.018ZM837.526,913.839C837.543,913.805 837.56,913.773 837.576,913.739C837.56,913.772 837.543,913.805 837.526,913.839ZM837.615,913.663C837.632,913.63 837.647,913.599 837.664,913.566C837.647,913.599 837.632,913.63 837.615,913.663ZM837.706,913.484C837.721,913.453 837.737,913.423 837.753,913.392C837.738,913.421 837.721,913.454 837.706,913.484ZM837.795,913.308C837.81,913.279 837.825,913.25 837.84,913.221C837.825,913.25 837.81,913.279 837.795,913.308ZM837.887,913.129C837.901,913.102 837.916,913.074 837.93,913.047C837.916,913.074 837.901,913.102 837.887,913.129ZM837.976,912.957C837.991,912.929 838.005,912.901 838.02,912.873C838.005,912.901 837.99,912.93 837.976,912.957ZM838.068,912.78C838.082,912.753 838.095,912.728 838.109,912.702C838.095,912.727 838.082,912.754 838.068,912.78ZM838.16,912.604C838.173,912.58 838.186,912.555 838.198,912.531C838.185,912.556 838.173,912.579 838.16,912.604ZM838.253,912.427C838.265,912.405 838.277,912.382 838.288,912.36C838.277,912.382 838.265,912.405 838.253,912.427ZM838.345,912.253C838.356,912.232 838.367,912.211 838.379,912.189C838.368,912.209 838.355,912.233 838.345,912.253ZM838.439,912.077C838.449,912.058 838.459,912.038 838.469,912.019C838.459,912.039 838.449,912.057 838.439,912.077ZM838.531,911.904C838.541,911.885 838.55,911.867 838.561,911.849C838.551,911.867 838.541,911.886 838.531,911.904ZM838.626,911.727C838.634,911.711 838.643,911.695 838.652,911.679C838.643,911.695 838.635,911.711 838.626,911.727ZM838.718,911.557C838.727,911.541 838.736,911.524 838.745,911.508C838.736,911.524 838.727,911.541 838.718,911.557ZM838.814,911.381C838.821,911.367 838.828,911.354 838.836,911.341C838.828,911.355 838.822,911.366 838.814,911.381ZM838.908,911.208C838.915,911.196 838.921,911.184 838.928,911.171C838.921,911.184 838.915,911.196 838.908,911.208ZM839.004,911.034C839.009,911.025 839.015,911.013 839.02,911.005C839.015,911.014 839.009,911.024 839.004,911.034ZM839.099,910.862C839.104,910.853 839.108,910.845 839.113,910.836C839.109,910.843 839.103,910.855 839.099,910.862ZM839.197,910.686C839.199,910.682 839.202,910.677 839.204,910.673C839.201,910.678 839.2,910.681 839.197,910.686ZM839.293,910.514C839.295,910.511 839.295,910.51 839.297,910.507C839.295,910.511 839.295,910.51 839.293,910.514Z" style="fill:rgb(213,222,226);fill-rule:nonzero;"/>
        <path d="M849.094,1060.37L849.087,1060.37C830.733,1021.18 823.364,973.284 829.57,938.572L829.571,938.572C823.365,973.279 830.745,1021.18 849.094,1060.37Z" style="fill:rgb(3,44,57);fill-rule:nonzero;"/>
        <path d="M934.287,1129.93L934.265,1129.93C896.657,1129.91 867.408,1099.48 849.094,1060.37C830.745,1021.18 823.365,973.279 829.571,938.572C830.762,931.908 832.454,925.729 834.665,920.192C834.714,920.069 834.763,919.947 834.813,919.824C834.815,919.821 834.816,919.818 834.817,919.814C834.84,919.757 834.864,919.699 834.887,919.642C834.891,919.632 834.896,919.621 834.9,919.611C834.921,919.559 834.941,919.51 834.963,919.458C834.964,919.453 834.967,919.446 834.969,919.442C834.992,919.386 835.015,919.331 835.038,919.276C835.041,919.267 835.045,919.259 835.048,919.251C835.07,919.197 835.091,919.146 835.114,919.093C835.117,919.085 835.12,919.076 835.124,919.069C835.145,919.017 835.168,918.963 835.189,918.912C835.194,918.899 835.199,918.888 835.204,918.876C835.225,918.827 835.246,918.778 835.266,918.729C835.27,918.719 835.274,918.71 835.278,918.701C835.3,918.65 835.321,918.599 835.343,918.547C835.348,918.536 835.353,918.525 835.358,918.514C835.379,918.464 835.4,918.414 835.421,918.365C835.425,918.356 835.428,918.348 835.432,918.338C835.454,918.287 835.477,918.234 835.499,918.183C835.503,918.175 835.506,918.168 835.509,918.161C835.532,918.108 835.555,918.054 835.578,918.001C835.581,917.995 835.584,917.987 835.587,917.98C835.61,917.928 835.634,917.873 835.657,917.82C835.66,917.813 835.663,917.807 835.666,917.799C835.689,917.747 835.713,917.692 835.736,917.639C835.739,917.632 835.742,917.625 835.745,917.618C835.769,917.565 835.792,917.512 835.816,917.459C835.819,917.451 835.823,917.443 835.826,917.436C835.849,917.383 835.872,917.331 835.896,917.279C835.899,917.27 835.903,917.263 835.906,917.255C835.93,917.202 835.952,917.152 835.976,917.099C835.98,917.09 835.985,917.08 835.989,917.071C836.011,917.02 836.034,916.97 836.057,916.919C836.061,916.91 836.066,916.9 836.07,916.891C836.093,916.84 836.115,916.791 836.138,916.74C836.143,916.73 836.148,916.719 836.153,916.708C836.176,916.658 836.196,916.612 836.219,916.562C836.225,916.551 836.23,916.538 836.235,916.527C836.257,916.48 836.28,916.43 836.301,916.383C836.307,916.37 836.313,916.358 836.319,916.345C836.34,916.298 836.362,916.252 836.384,916.205C836.39,916.191 836.396,916.178 836.403,916.164C836.424,916.119 836.445,916.072 836.466,916.027C836.473,916.013 836.48,915.998 836.487,915.983C836.508,915.938 836.529,915.893 836.55,915.849C836.557,915.834 836.563,915.82 836.57,915.806C836.59,915.763 836.613,915.715 836.633,915.672C836.641,915.655 836.648,915.64 836.656,915.623C836.676,915.58 836.697,915.537 836.717,915.495C836.725,915.478 836.733,915.461 836.741,915.444C836.761,915.402 836.781,915.361 836.801,915.318C836.81,915.3 836.819,915.281 836.828,915.262C836.847,915.222 836.866,915.183 836.885,915.142C836.895,915.123 836.904,915.103 836.913,915.084C836.932,915.045 836.951,915.005 836.97,914.966C836.98,914.945 836.99,914.925 837,914.904C837.019,914.865 837.037,914.828 837.056,914.789C837.066,914.768 837.076,914.749 837.086,914.728C837.105,914.689 837.123,914.652 837.142,914.613C837.152,914.592 837.164,914.569 837.174,914.548C837.192,914.511 837.21,914.475 837.228,914.438C837.239,914.416 837.25,914.394 837.26,914.373C837.279,914.336 837.297,914.299 837.315,914.262C837.326,914.24 837.337,914.217 837.349,914.194C837.366,914.159 837.384,914.122 837.402,914.087C837.414,914.064 837.425,914.042 837.436,914.018C837.454,913.983 837.471,913.948 837.489,913.913C837.501,913.888 837.514,913.863 837.526,913.839C837.543,913.805 837.56,913.772 837.576,913.739C837.589,913.714 837.602,913.688 837.615,913.663C837.632,913.63 837.647,913.599 837.664,913.566C837.678,913.539 837.692,913.511 837.706,913.484C837.721,913.454 837.738,913.421 837.753,913.392C837.767,913.364 837.781,913.336 837.795,913.308C837.81,913.279 837.825,913.25 837.84,913.221C837.856,913.19 837.872,913.16 837.887,913.129C837.901,913.102 837.916,913.074 837.93,913.047C837.945,913.017 837.961,912.987 837.976,912.957C837.99,912.93 838.005,912.901 838.02,912.873C838.036,912.842 838.052,912.811 838.068,912.78C838.082,912.754 838.095,912.727 838.109,912.702C838.126,912.669 838.143,912.637 838.16,912.604C838.173,912.579 838.185,912.556 838.198,912.531C838.217,912.496 838.235,912.462 838.253,912.427C838.265,912.405 838.277,912.382 838.288,912.36C838.307,912.324 838.326,912.289 838.345,912.253C838.355,912.233 838.368,912.209 838.379,912.189C838.399,912.151 838.418,912.114 838.439,912.077C838.449,912.057 838.459,912.039 838.469,912.019C838.49,911.98 838.51,911.942 838.531,911.904C838.541,911.886 838.551,911.867 838.561,911.849C838.582,911.808 838.604,911.768 838.626,911.727C838.635,911.711 838.643,911.695 838.652,911.679C838.674,911.638 838.696,911.598 838.718,911.557C838.727,911.541 838.736,911.524 838.745,911.508C838.768,911.465 838.79,911.424 838.814,911.381C838.822,911.366 838.828,911.355 838.836,911.341C838.859,911.297 838.884,911.252 838.908,911.208C838.915,911.196 838.921,911.184 838.928,911.171C838.954,911.125 838.979,911.08 839.004,911.034C839.009,911.024 839.015,911.014 839.02,911.005C839.047,910.957 839.072,910.91 839.099,910.862C839.103,910.855 839.109,910.843 839.113,910.836C839.141,910.786 839.169,910.736 839.197,910.686C839.2,910.681 839.201,910.678 839.204,910.673C839.234,910.62 839.263,910.567 839.293,910.514C839.295,910.51 839.295,910.511 839.297,910.507C845.677,899.126 854.666,889.271 865.151,881.26C860.665,887.236 856.925,893.741 854.138,900.719C828.92,963.878 871.222,1110.45 953.758,1110.45C957.01,1110.45 960.309,1110.23 963.684,1109.76C986.799,1106.55 1010.12,1104.94 1033.46,1104.94C1049.82,1104.94 1066.18,1105.73 1082.51,1107.32C1085.35,1107.59 1088.14,1107.73 1090.86,1107.73C1108.89,1107.73 1124.45,1101.84 1137.65,1091.92C1121.18,1113.15 1099.24,1127.2 1071.39,1127.2L1070.75,1127.2C1068.23,1127.18 1065.65,1127.04 1063.04,1126.79C1051.77,1125.7 1040.49,1124.98 1029.2,1124.64C1024.13,1124.49 1019.06,1124.41 1013.99,1124.41C990.64,1124.41 967.328,1126.02 944.211,1129.23C940.842,1129.7 937.534,1129.93 934.287,1129.93Z" style="fill:rgb(135,166,195);fill-rule:nonzero;"/>
        <path d="M1082.88,914.407C1029.03,910.221 974.923,910.221 921.066,914.407C834.701,921.119 804.967,1063.87 961.175,1085.27C1010.73,1092.05 1070.23,1088.5 1113.66,1061.6C1181.66,1019.46 1157.42,920.2 1082.88,914.407Z" style="fill:rgb(199,216,234);fill-rule:nonzero;"/>
        <path d="M1004.44,1085.89C990.292,1085.89 975.844,1084.9 961.495,1082.93C879.449,1071.69 851.397,1027.36 852.503,989.627C853.633,951.043 883.188,919.716 921.249,916.758C947.989,914.679 975.151,913.625 1001.97,913.625L1001.98,913.625C1028.8,913.625 1055.96,914.679 1082.7,916.758C1115.27,919.289 1141.32,941.535 1149.08,973.432C1157.23,1006.92 1142.83,1040.74 1112.42,1059.59C1077.33,1081.33 1034.33,1085.89 1004.44,1085.89Z" style="fill:rgb(3,50,63);fill-rule:nonzero;"/>
        <path d="M1110.57,898.906C1100.28,898.906 1086.56,897.445 1071.75,895.666C1042.62,891.898 1017.88,887.971 1016.96,879.798C1016.12,873.152 1034.26,865.403 1059.43,865.403C1064.5,865.403 1069.85,865.718 1075.4,866.42C1108.47,870.483 1131.7,886.252 1128.76,893.743C1127.33,897.533 1120.56,898.906 1110.57,898.906Z" style="fill:rgb(182,207,230);fill-rule:nonzero;"/>
        <path d="M1061.53,994.294C1059.07,994.021 1056.86,995.768 1056.58,998.217C1053.33,1026.14 1030.77,1047.19 1004.1,1047.19C977.427,1047.19 954.867,1026.14 951.621,998.221C951.336,995.77 949.124,994.018 946.667,994.298C944.216,994.584 942.459,996.802 942.744,999.252C946.515,1031.68 972.891,1056.13 1004.1,1056.13C1035.31,1056.13 1061.68,1031.67 1065.45,999.249C1065.74,996.798 1063.98,994.581 1061.53,994.294Z" style="fill:rgb(255,0,122);fill-rule:nonzero;"/>
        <path d="M935.911,944.051L912.824,958.2C910.721,959.49 910.061,962.241 911.35,964.346C912.194,965.72 913.661,966.479 915.164,966.479C915.96,966.479 916.767,966.267 917.494,965.819L940.581,951.669C942.684,950.38 943.344,947.629 942.055,945.524C940.765,943.421 938.013,942.761 935.911,944.051Z" style="fill:rgb(255,0,122);fill-rule:nonzero;"/>
        <path d="M1090.98,963.008L1067.89,948.858C1065.79,947.568 1063.04,948.229 1061.75,950.332C1060.46,952.437 1061.12,955.188 1063.22,956.477L1086.31,970.627C1087.04,971.074 1087.84,971.287 1088.64,971.287C1090.14,971.287 1091.61,970.528 1092.45,969.153C1093.74,967.049 1093.08,964.297 1090.98,963.008Z" style="fill:rgb(255,0,122);fill-rule:nonzero;"/>
    </g>
</svg>
