<?xml version="1.0" encoding="UTF-8" standalone="no"?>
<!DOCTYPE svg PUBLIC "-//W3C//DTD SVG 1.1//EN" "http://www.w3.org/Graphics/SVG/1.1/DTD/svg11.dtd">
<svg width="100%" height="100%" viewBox="0 0 425 325" version="1.1" xmlns="http://www.w3.org/2000/svg" xmlns:xlink="http://www.w3.org/1999/xlink" xml:space="preserve" xmlns:serif="http://www.serif.com/" style="fill-rule:evenodd;clip-rule:evenodd;stroke-linejoin:round;stroke-miterlimit:2;">
    <g transform="matrix(1,0,0,1,-1312.98,-805.41)">
        <path d="M1426.81,860.839C1432.12,870.046 1425.31,883.933 1411.58,891.857C1397.85,899.783 1382.42,898.743 1377.1,889.536C1371.79,880.33 1378.61,866.442 1392.33,858.518C1406.06,850.593 1421.49,851.633 1426.81,860.839Z" style="fill:rgb(3,50,63);fill-rule:nonzero;"/>
        <path d="M1387.41,874.668C1385.32,872.209 1380.07,862.939 1363.94,834.183L1374.99,825.842C1388.37,839.263 1405.17,856.231 1406.02,856.726L1387.41,874.668Z" style="fill:rgb(3,50,63);fill-rule:nonzero;"/>
        <path d="M1385.44,825.774C1385.44,836.904 1376.42,845.927 1365.29,845.927C1354.16,845.927 1345.14,836.904 1345.14,825.774C1345.14,814.644 1354.16,805.621 1365.29,805.621C1376.42,805.621 1385.44,814.644 1385.44,825.774Z" style="fill:rgb(199,216,234);fill-rule:nonzero;"/>
        <path d="M1365.22,845.927L1365.19,845.927L1365.22,845.927ZM1365.15,845.927L1365.12,845.927L1365.15,845.927ZM1365.08,845.926L1365.05,845.926L1365.08,845.926ZM1365.01,845.925L1364.98,845.925L1365.01,845.925ZM1364.93,845.924L1364.91,845.924L1364.93,845.924ZM1364.84,845.923L1364.84,845.922L1364.84,845.923ZM1364.69,845.919C1364.69,845.919 1364.68,845.918 1364.67,845.918C1364.68,845.918 1364.69,845.919 1364.69,845.919ZM1364.62,845.917C1364.62,845.916 1364.61,845.916 1364.6,845.916C1364.61,845.916 1364.62,845.916 1364.62,845.917ZM1364.55,845.914C1364.54,845.914 1364.54,845.914 1364.53,845.913C1364.54,845.914 1364.54,845.914 1364.55,845.914ZM1364.47,845.911L1364.46,845.911L1364.47,845.911ZM1364.46,805.637L1364.47,805.637L1364.46,805.637ZM1364.53,805.635C1364.54,805.635 1364.54,805.634 1364.55,805.634C1364.54,805.634 1364.54,805.635 1364.53,805.635ZM1364.61,805.632L1364.62,805.632L1364.61,805.632ZM1364.68,805.63L1364.69,805.63L1364.68,805.63ZM1364.91,805.624L1364.93,805.624L1364.91,805.624ZM1364.98,805.623L1365,805.623L1364.98,805.623ZM1365.05,805.622L1365.08,805.622L1365.05,805.622ZM1365.12,805.622C1365.13,805.621 1365.14,805.621 1365.15,805.621C1365.14,805.621 1365.13,805.621 1365.12,805.622ZM1365.19,805.621L1365.22,805.621L1365.19,805.621Z" style="fill:rgb(213,222,226);fill-rule:nonzero;"/>
        <path d="M1365.29,845.927L1365.12,845.927C1365.1,845.927 1365.09,845.926 1365.08,845.926L1365.05,845.926C1365.03,845.926 1365.02,845.926 1365.01,845.925L1364.98,845.925C1364.96,845.925 1364.95,845.924 1364.93,845.924L1364.91,845.924C1364.89,845.923 1364.87,845.923 1364.84,845.923L1364.84,845.922C1364.81,845.922 1364.79,845.921 1364.76,845.921C1364.74,845.92 1364.72,845.919 1364.69,845.919C1364.69,845.919 1364.68,845.918 1364.67,845.918C1364.66,845.918 1364.64,845.917 1364.62,845.917C1364.62,845.916 1364.61,845.916 1364.6,845.916C1364.58,845.915 1364.57,845.915 1364.55,845.914C1364.54,845.914 1364.54,845.914 1364.53,845.913C1364.51,845.913 1364.49,845.912 1364.47,845.911L1364.46,845.911C1363.14,845.857 1361.86,845.678 1360.62,845.383C1369.5,843.278 1376.11,835.297 1376.11,825.774C1376.11,816.25 1369.5,808.27 1360.62,806.165C1361.86,805.87 1363.15,805.691 1364.46,805.637L1364.47,805.637C1364.49,805.636 1364.51,805.636 1364.53,805.635C1364.54,805.635 1364.54,805.634 1364.55,805.634C1364.57,805.634 1364.59,805.633 1364.61,805.632L1364.62,805.632C1364.64,805.631 1364.66,805.63 1364.68,805.63L1364.69,805.63C1364.71,805.629 1364.74,805.628 1364.76,805.628C1364.79,805.627 1364.81,805.626 1364.84,805.626C1364.86,805.625 1364.88,805.625 1364.91,805.624L1364.93,805.624C1364.95,805.624 1364.96,805.623 1364.98,805.623L1365,805.623C1365.02,805.623 1365.03,805.622 1365.05,805.622L1365.12,805.622C1365.13,805.621 1365.14,805.621 1365.15,805.621L1365.29,805.621C1376.42,805.621 1385.44,814.644 1385.44,825.774C1385.44,828.861 1384.75,831.784 1383.51,834.399C1380.96,839.781 1376.09,843.852 1370.2,845.326C1368.62,845.719 1366.98,845.927 1365.29,845.927Z" style="fill:rgb(166,188,207);fill-rule:nonzero;"/>
        <path d="M1360.62,845.384C1381.48,849.464 1393.28,823.161 1377.45,810.379C1372.89,806.619 1366.58,805 1360.62,806.165C1372.76,802.643 1386.02,811.824 1386.12,825.774C1386.02,839.575 1372.87,848.933 1360.62,845.384Z" style="fill:rgb(3,50,63);fill-rule:nonzero;"/>
        <path d="M1356.97,832.505C1352.37,832.505 1348.65,828.78 1348.65,824.185C1348.65,819.59 1352.37,815.865 1356.97,815.865C1361.56,815.865 1365.29,819.59 1365.29,824.185C1365.29,828.78 1361.56,832.505 1356.97,832.505Z" style="fill:rgb(219,231,243);fill-rule:nonzero;"/>
        <path d="M1627.4,863.408C1622.09,872.614 1628.91,886.502 1642.63,894.427C1656.36,902.351 1671.79,901.312 1677.11,892.106C1682.43,882.898 1675.61,869.011 1661.88,861.087C1648.16,853.162 1632.72,854.201 1627.4,863.408Z" style="fill:rgb(3,50,63);fill-rule:nonzero;"/>
        <path d="M1666.81,877.236C1668.89,874.777 1674.14,865.509 1690.28,836.751L1679.23,828.411C1665.85,841.832 1649.04,858.8 1648.2,859.294L1666.81,877.236Z" style="fill:rgb(3,50,63);fill-rule:nonzero;"/>
        <path d="M1668.77,828.343C1668.77,839.474 1677.79,848.496 1688.92,848.496C1700.05,848.496 1709.08,839.474 1709.08,828.343C1709.08,817.212 1700.05,808.191 1688.92,808.191C1677.79,808.191 1668.77,817.212 1668.77,828.343Z" style="fill:rgb(199,216,234);fill-rule:nonzero;"/>
        <path d="M1688.99,848.496L1689.02,848.496L1688.99,848.496ZM1689.07,848.496L1689.09,848.496L1689.07,848.496ZM1689.14,848.495L1689.16,848.495L1689.14,848.495ZM1689.21,848.494L1689.23,848.494L1689.21,848.494ZM1693.59,808.734C1692.36,808.442 1691.09,808.263 1689.78,808.208C1691.09,808.263 1692.36,808.442 1693.59,808.733L1693.59,808.734ZM1689.76,808.208C1689.75,808.207 1689.73,808.206 1689.72,808.206C1689.73,808.206 1689.75,808.207 1689.76,808.208ZM1689.7,808.205C1689.68,808.204 1689.67,808.204 1689.65,808.203C1689.67,808.204 1689.68,808.204 1689.7,808.205ZM1689.62,808.202C1689.61,808.202 1689.6,808.202 1689.58,808.201C1689.6,808.202 1689.61,808.202 1689.62,808.202ZM1689.55,808.2C1689.54,808.2 1689.53,808.199 1689.52,808.199C1689.53,808.199 1689.54,808.2 1689.55,808.2ZM1689.48,808.198C1689.47,808.198 1689.46,808.197 1689.45,808.197C1689.46,808.197 1689.47,808.198 1689.48,808.198ZM1689.38,808.195L1689.36,808.195L1689.38,808.195ZM1689.31,808.194L1689.28,808.194L1689.31,808.194ZM1689.24,808.193L1689.21,808.193L1689.24,808.193ZM1689.17,808.192L1689.14,808.192L1689.17,808.192ZM1689.09,808.191L1689.07,808.191L1689.09,808.191ZM1689.02,808.191L1688.99,808.191L1689.02,808.191Z" style="fill:rgb(213,222,226);fill-rule:nonzero;"/>
        <path d="M1688.92,848.496C1687.23,848.496 1685.59,848.288 1684.02,847.895C1678.12,846.421 1673.26,842.349 1670.7,836.968C1669.46,834.353 1668.77,831.429 1668.77,828.343C1668.77,817.212 1677.79,808.191 1688.92,808.191L1689.09,808.191C1689.11,808.191 1689.12,808.191 1689.14,808.192L1689.17,808.192C1689.18,808.192 1689.19,808.192 1689.21,808.193L1689.24,808.193C1689.25,808.193 1689.27,808.193 1689.28,808.194L1689.31,808.194C1689.32,808.194 1689.34,808.195 1689.36,808.195L1689.38,808.195C1689.4,808.196 1689.42,808.197 1689.45,808.197C1689.46,808.197 1689.47,808.198 1689.48,808.198C1689.49,808.198 1689.5,808.199 1689.52,808.199C1689.53,808.199 1689.54,808.2 1689.55,808.2C1689.56,808.2 1689.57,808.201 1689.58,808.201C1689.6,808.202 1689.61,808.202 1689.62,808.202C1689.63,808.203 1689.64,808.203 1689.65,808.203C1689.67,808.204 1689.68,808.204 1689.7,808.205C1689.7,808.205 1689.71,808.206 1689.72,808.206C1689.73,808.206 1689.75,808.207 1689.76,808.208L1689.78,808.208C1691.09,808.263 1692.36,808.442 1693.59,808.734C1684.71,810.84 1678.11,818.82 1678.11,828.343C1678.11,837.866 1684.71,845.847 1693.59,847.953C1692.21,848.28 1690.78,848.466 1689.3,848.493C1689.27,848.493 1689.25,848.494 1689.23,848.494L1689.21,848.494C1689.2,848.495 1689.18,848.495 1689.16,848.495L1689.14,848.495C1689.12,848.495 1689.11,848.496 1689.09,848.496L1688.92,848.496Z" style="fill:rgb(166,188,207);fill-rule:nonzero;"/>
        <path d="M1693.59,847.953C1672.73,852.033 1660.93,825.73 1676.76,812.948C1681.32,809.188 1687.63,807.569 1693.59,808.733C1681.46,805.212 1668.19,814.394 1668.1,828.343C1668.2,842.145 1681.35,851.501 1693.59,847.953Z" style="fill:rgb(3,50,63);fill-rule:nonzero;"/>
        <path d="M1697.24,835.074C1692.65,835.074 1688.92,831.349 1688.92,826.754C1688.92,822.159 1692.65,818.434 1697.24,818.434C1701.84,818.434 1705.56,822.159 1705.56,826.754C1705.56,831.349 1701.84,835.074 1697.24,835.074Z" style="fill:rgb(219,231,243);fill-rule:nonzero;"/>
        <path d="M1312.98,994.22C1312.98,1046.86 1408,1089.54 1525.21,1089.54C1642.43,1089.54 1737.45,1046.86 1737.45,994.22C1737.45,941.58 1642.43,898.907 1525.21,898.907C1408,898.907 1312.98,941.58 1312.98,994.22Z" style="fill:rgb(3,50,63);fill-rule:nonzero;"/>
        <path d="M1712.67,1038.95C1708.91,1042.13 1704.75,1045.19 1700.24,1048.14C1711.24,1016.52 1716,981.402 1714.85,951.375C1718.31,954.464 1721.42,957.65 1724.13,960.921C1724.04,985.676 1720.28,1013.02 1712.67,1038.95Z" style="fill:rgb(162,191,220);fill-rule:nonzero;"/>
        <path d="M1326.35,960.85C1329.08,957.572 1332.2,954.38 1335.68,951.284C1333.9,981.594 1339.98,1017.32 1352.1,1049.37C1347.4,1046.4 1343.07,1043.3 1339.14,1040.1C1330.65,1013.66 1326.22,985.857 1326.35,960.85Z" style="fill:rgb(162,191,220);fill-rule:nonzero;"/>
        <path d="M1467.53,1129.23C1506.84,1123.78 1546.72,1122.94 1586.36,1126.79C1677.51,1135.65 1709.95,999.12 1696.95,930.405C1690.32,895.366 1651.27,870.257 1618.3,862.459C1558.54,848.326 1494.7,847.434 1434.64,860.042C1402.41,866.906 1370.53,888.769 1357.98,920.192C1331.77,985.838 1378.49,1141.59 1467.53,1129.23Z" style="fill:rgb(162,191,220);fill-rule:nonzero;"/>
        <path d="M1457.58,1129.93C1419.97,1129.92 1390.72,1099.48 1372.41,1060.37C1390.73,1099.48 1419.98,1129.91 1457.58,1129.93ZM1593.81,1127.2C1591.44,1127.17 1589.02,1127.04 1586.56,1126.81C1589.01,1127.04 1591.44,1127.17 1593.81,1127.2ZM1586.36,1126.79C1575.77,1125.76 1565.16,1125.07 1554.56,1124.71C1565.17,1125.07 1575.77,1125.76 1586.36,1126.79ZM1352.89,938.573C1354.08,931.908 1355.77,925.729 1357.98,920.192C1355.77,925.729 1354.08,931.908 1352.89,938.572L1352.89,938.573ZM1357.98,920.192C1358.03,920.07 1358.08,919.946 1358.13,919.824C1358.08,919.947 1358.03,920.069 1357.98,920.192ZM1358.14,919.814C1358.16,919.756 1358.18,919.7 1358.21,919.642C1358.18,919.699 1358.16,919.757 1358.14,919.814ZM1358.22,919.611C1358.24,919.56 1358.26,919.509 1358.28,919.458C1358.26,919.51 1358.24,919.559 1358.22,919.611ZM1358.29,919.442C1358.31,919.386 1358.33,919.331 1358.36,919.276C1358.33,919.331 1358.31,919.386 1358.29,919.442ZM1358.37,919.251C1358.39,919.198 1358.41,919.146 1358.43,919.093C1358.41,919.146 1358.39,919.197 1358.37,919.251ZM1358.44,919.069C1358.46,919.016 1358.49,918.964 1358.51,918.912C1358.49,918.963 1358.46,919.017 1358.44,919.069ZM1358.52,918.876C1358.54,918.827 1358.56,918.777 1358.59,918.729C1358.56,918.778 1358.54,918.827 1358.52,918.876ZM1358.6,918.701C1358.62,918.65 1358.64,918.598 1358.66,918.547C1358.64,918.599 1358.62,918.65 1358.6,918.701ZM1358.68,918.514C1358.7,918.464 1358.72,918.415 1358.74,918.365C1358.72,918.414 1358.7,918.464 1358.68,918.514ZM1358.75,918.337C1358.77,918.285 1358.8,918.235 1358.82,918.184C1358.8,918.235 1358.77,918.286 1358.75,918.337ZM1358.83,918.153C1358.85,918.103 1358.87,918.053 1358.9,918.003C1358.87,918.052 1358.85,918.104 1358.83,918.153ZM1358.91,917.969C1358.93,917.92 1358.95,917.872 1358.98,917.822C1358.95,917.871 1358.93,917.92 1358.91,917.969ZM1358.99,917.787C1359.01,917.739 1359.03,917.691 1359.05,917.642C1359.03,917.691 1359.01,917.738 1358.99,917.787ZM1359.07,917.603C1359.09,917.556 1359.11,917.509 1359.13,917.462C1359.11,917.509 1359.09,917.556 1359.07,917.603ZM1359.15,917.422C1359.17,917.375 1359.19,917.328 1359.21,917.282C1359.19,917.329 1359.17,917.375 1359.15,917.422ZM1359.23,917.242C1359.25,917.195 1359.27,917.149 1359.29,917.103C1359.27,917.148 1359.25,917.197 1359.23,917.242ZM1359.31,917.057C1359.33,917.012 1359.35,916.968 1359.37,916.924C1359.35,916.967 1359.33,917.014 1359.31,917.057ZM1359.4,916.875C1359.42,916.832 1359.44,916.788 1359.46,916.745C1359.44,916.788 1359.42,916.832 1359.4,916.875ZM1359.48,916.693C1359.5,916.652 1359.52,916.608 1359.54,916.566C1359.52,916.609 1359.5,916.65 1359.48,916.693ZM1359.56,916.511C1359.58,916.471 1359.6,916.429 1359.62,916.389C1359.6,916.428 1359.58,916.472 1359.56,916.511ZM1359.65,916.328C1359.66,916.289 1359.68,916.25 1359.7,916.211C1359.68,916.25 1359.66,916.289 1359.65,916.328ZM1359.73,916.148C1359.75,916.109 1359.76,916.072 1359.78,916.033C1359.76,916.072 1359.75,916.108 1359.73,916.148ZM1359.81,915.966C1359.83,915.929 1359.85,915.892 1359.87,915.856C1359.85,915.893 1359.83,915.929 1359.81,915.966ZM1359.9,915.788C1359.91,915.752 1359.93,915.715 1359.95,915.679C1359.93,915.714 1359.91,915.752 1359.9,915.788ZM1359.98,915.604C1360,915.57 1360.02,915.537 1360.03,915.503C1360.02,915.537 1360,915.571 1359.98,915.604ZM1360.07,915.424C1360.08,915.392 1360.1,915.359 1360.12,915.328C1360.1,915.359 1360.08,915.392 1360.07,915.424ZM1360.16,915.241C1360.17,915.212 1360.19,915.181 1360.2,915.152C1360.19,915.182 1360.17,915.211 1360.16,915.241ZM1360.24,915.063C1360.26,915.035 1360.27,915.005 1360.28,914.976C1360.27,915.004 1360.26,915.035 1360.24,915.063ZM1360.33,914.883C1360.34,914.855 1360.36,914.829 1360.37,914.801C1360.36,914.829 1360.34,914.855 1360.33,914.883ZM1360.42,914.705C1360.43,914.679 1360.44,914.652 1360.45,914.626C1360.44,914.654 1360.43,914.678 1360.42,914.705ZM1360.5,914.525C1360.52,914.5 1360.53,914.476 1360.54,914.451C1360.53,914.475 1360.52,914.501 1360.5,914.525ZM1360.59,914.35C1360.6,914.326 1360.62,914.3 1360.63,914.276C1360.61,914.301 1360.6,914.325 1360.59,914.35ZM1360.68,914.171C1360.69,914.148 1360.7,914.125 1360.71,914.102C1360.7,914.125 1360.69,914.149 1360.68,914.171ZM1360.77,913.993C1360.78,913.972 1360.79,913.95 1360.8,913.929C1360.79,913.951 1360.78,913.971 1360.77,913.993ZM1360.86,913.814C1360.87,913.794 1360.88,913.776 1360.89,913.756C1360.88,913.774 1360.87,913.796 1360.86,913.814ZM1360.95,913.639C1360.96,913.621 1360.97,913.601 1360.97,913.583C1360.96,913.603 1360.96,913.619 1360.95,913.639ZM1361.04,913.459C1361.05,913.443 1361.05,913.427 1361.06,913.411C1361.05,913.428 1361.05,913.443 1361.04,913.459ZM1361.13,913.282C1361.13,913.268 1361.14,913.254 1361.15,913.241C1361.14,913.255 1361.14,913.267 1361.13,913.282ZM1361.22,913.104C1361.23,913.092 1361.23,913.081 1361.24,913.069C1361.23,913.08 1361.23,913.093 1361.22,913.104ZM1361.31,912.929C1361.31,912.919 1361.32,912.907 1361.33,912.897C1361.32,912.908 1361.32,912.918 1361.31,912.929ZM1361.4,912.752C1361.41,912.744 1361.41,912.735 1361.41,912.727C1361.41,912.736 1361.41,912.743 1361.4,912.752ZM1361.49,912.577C1361.5,912.57 1361.5,912.563 1361.5,912.556C1361.5,912.563 1361.5,912.57 1361.49,912.577ZM1361.59,912.399L1361.59,912.389L1361.59,912.399ZM1361.68,912.226L1361.68,912.217L1361.68,912.226Z" style="fill:rgb(213,222,226);fill-rule:nonzero;"/>
        <path d="M1372.41,1060.37C1354.05,1021.18 1346.68,973.284 1352.89,938.573L1352.89,938.572C1346.68,973.279 1354.06,1021.18 1372.41,1060.37Z" style="fill:rgb(3,44,57);fill-rule:nonzero;"/>
        <path d="M1457.61,1129.93L1457.58,1129.93C1419.98,1129.91 1390.73,1099.48 1372.41,1060.37C1354.06,1021.18 1346.68,973.279 1352.89,938.572C1354.08,931.908 1355.77,925.729 1357.98,920.192C1358.03,920.069 1358.08,919.947 1358.13,919.824C1358.13,919.821 1358.13,919.818 1358.14,919.814C1358.16,919.757 1358.18,919.699 1358.21,919.642C1358.21,919.632 1358.21,919.621 1358.22,919.611C1358.24,919.559 1358.26,919.51 1358.28,919.458C1358.28,919.453 1358.29,919.446 1358.29,919.442C1358.31,919.386 1358.33,919.331 1358.36,919.276C1358.36,919.267 1358.36,919.259 1358.37,919.251C1358.39,919.197 1358.41,919.146 1358.43,919.093C1358.44,919.085 1358.44,919.076 1358.44,919.069C1358.46,919.017 1358.49,918.963 1358.51,918.912C1358.51,918.899 1358.52,918.888 1358.52,918.876C1358.54,918.827 1358.56,918.778 1358.59,918.729C1358.59,918.719 1358.59,918.71 1358.6,918.701C1358.62,918.65 1358.64,918.599 1358.66,918.547C1358.67,918.536 1358.67,918.525 1358.68,918.514C1358.7,918.464 1358.72,918.414 1358.74,918.365C1358.74,918.356 1358.75,918.346 1358.75,918.337C1358.77,918.286 1358.8,918.235 1358.82,918.184C1358.82,918.173 1358.83,918.163 1358.83,918.153C1358.85,918.104 1358.87,918.052 1358.9,918.003C1358.9,917.992 1358.91,917.98 1358.91,917.969C1358.93,917.92 1358.95,917.871 1358.98,917.822C1358.98,917.811 1358.99,917.798 1358.99,917.787C1359.01,917.738 1359.03,917.691 1359.05,917.642C1359.06,917.629 1359.07,917.616 1359.07,917.603C1359.09,917.556 1359.11,917.509 1359.13,917.462C1359.14,917.449 1359.15,917.435 1359.15,917.422C1359.17,917.375 1359.19,917.329 1359.21,917.282C1359.22,917.269 1359.23,917.255 1359.23,917.242C1359.25,917.197 1359.27,917.148 1359.29,917.103C1359.3,917.087 1359.31,917.073 1359.31,917.057C1359.33,917.014 1359.35,916.967 1359.37,916.924C1359.38,916.908 1359.39,916.891 1359.4,916.875C1359.42,916.832 1359.44,916.788 1359.46,916.745C1359.46,916.727 1359.47,916.711 1359.48,916.693C1359.5,916.65 1359.52,916.609 1359.54,916.566C1359.54,916.548 1359.55,916.53 1359.56,916.511C1359.58,916.472 1359.6,916.428 1359.62,916.389C1359.63,916.368 1359.64,916.348 1359.65,916.328C1359.66,916.289 1359.68,916.25 1359.7,916.211C1359.71,916.19 1359.72,916.169 1359.73,916.148C1359.75,916.108 1359.76,916.072 1359.78,916.033C1359.79,916.011 1359.8,915.988 1359.81,915.966C1359.83,915.929 1359.85,915.893 1359.87,915.856C1359.88,915.833 1359.89,915.811 1359.9,915.788C1359.91,915.752 1359.93,915.714 1359.95,915.679C1359.96,915.654 1359.97,915.629 1359.98,915.604C1360,915.571 1360.02,915.537 1360.03,915.503C1360.04,915.477 1360.06,915.45 1360.07,915.424C1360.08,915.392 1360.1,915.359 1360.12,915.328C1360.13,915.298 1360.14,915.27 1360.16,915.241C1360.17,915.211 1360.19,915.182 1360.2,915.152C1360.21,915.122 1360.23,915.094 1360.24,915.063C1360.26,915.035 1360.27,915.004 1360.28,914.976C1360.3,914.945 1360.31,914.914 1360.33,914.883C1360.34,914.855 1360.36,914.829 1360.37,914.801C1360.39,914.769 1360.4,914.737 1360.42,914.705C1360.43,914.678 1360.44,914.654 1360.45,914.626C1360.47,914.592 1360.49,914.559 1360.5,914.525C1360.52,914.501 1360.53,914.475 1360.54,914.451C1360.56,914.418 1360.57,914.384 1360.59,914.35C1360.6,914.325 1360.61,914.301 1360.63,914.276C1360.64,914.24 1360.66,914.206 1360.68,914.171C1360.69,914.149 1360.7,914.125 1360.71,914.102C1360.73,914.066 1360.75,914.03 1360.77,913.993C1360.78,913.971 1360.79,913.951 1360.8,913.929C1360.82,913.891 1360.84,913.852 1360.86,913.814C1360.87,913.796 1360.88,913.774 1360.89,913.756C1360.91,913.717 1360.93,913.678 1360.95,913.639C1360.96,913.619 1360.96,913.603 1360.97,913.583C1361,913.541 1361.02,913.501 1361.04,913.459C1361.05,913.443 1361.05,913.428 1361.06,913.411C1361.08,913.369 1361.11,913.324 1361.13,913.282C1361.14,913.267 1361.14,913.255 1361.15,913.241C1361.17,913.195 1361.2,913.15 1361.22,913.104C1361.23,913.093 1361.23,913.08 1361.24,913.069C1361.26,913.022 1361.29,912.976 1361.31,912.929C1361.32,912.918 1361.32,912.908 1361.33,912.897C1361.35,912.849 1361.38,912.8 1361.4,912.752C1361.41,912.743 1361.41,912.736 1361.41,912.727C1361.44,912.677 1361.47,912.628 1361.49,912.577C1361.5,912.57 1361.5,912.563 1361.5,912.556C1361.53,912.504 1361.56,912.451 1361.59,912.399L1361.59,912.389C1361.62,912.335 1361.65,912.28 1361.68,912.226L1361.68,912.217C1368.11,900.111 1377.46,889.669 1388.47,881.26C1383.99,887.236 1380.24,893.741 1377.46,900.719C1352.24,963.878 1394.54,1110.45 1477.08,1110.45C1480.33,1110.45 1483.63,1110.23 1487,1109.76C1510.12,1106.55 1533.44,1104.94 1556.78,1104.94C1573.14,1104.94 1589.5,1105.73 1605.83,1107.32C1608.67,1107.59 1611.45,1107.73 1614.18,1107.73C1632.21,1107.73 1647.77,1101.84 1660.96,1091.92C1644.5,1113.15 1622.55,1127.2 1594.71,1127.2L1593.81,1127.2C1591.44,1127.17 1589.01,1127.04 1586.56,1126.81C1586.49,1126.8 1586.42,1126.8 1586.36,1126.79C1575.77,1125.76 1565.17,1125.07 1554.56,1124.71C1548.81,1124.51 1543.06,1124.41 1537.31,1124.41C1513.96,1124.41 1490.65,1126.02 1467.53,1129.23C1464.16,1129.7 1460.85,1129.93 1457.61,1129.93Z" style="fill:rgb(135,166,195);fill-rule:nonzero;"/>
        <path d="M1606.2,914.407C1552.35,910.221 1498.24,910.221 1444.38,914.407C1358.02,921.119 1328.29,1063.87 1484.49,1085.27C1534.04,1092.05 1593.55,1088.5 1636.98,1061.6C1704.98,1019.46 1680.74,920.2 1606.2,914.407Z" style="fill:rgb(199,216,234);fill-rule:nonzero;"/>
        <path d="M1527.76,1085.89C1513.61,1085.89 1499.16,1084.9 1484.81,1082.93C1402.77,1071.69 1374.72,1027.36 1375.82,989.627C1376.95,951.043 1406.51,919.716 1444.57,916.758C1471.31,914.679 1498.47,913.625 1525.29,913.625C1552.12,913.625 1579.28,914.679 1606.02,916.758C1638.59,919.289 1664.64,941.535 1672.4,973.432C1680.55,1006.92 1666.15,1040.74 1635.73,1059.59C1600.65,1081.33 1557.65,1085.89 1527.76,1085.89Z" style="fill:rgb(3,50,63);fill-rule:nonzero;"/>
        <path d="M1633.89,898.906C1623.6,898.906 1609.88,897.445 1595.07,895.666C1565.94,891.898 1541.2,887.971 1540.28,879.798C1539.44,873.152 1557.58,865.403 1582.74,865.403C1587.82,865.403 1593.17,865.718 1598.72,866.42C1631.79,870.483 1655.02,886.252 1652.08,893.743C1650.65,897.533 1643.88,898.906 1633.89,898.906Z" style="fill:rgb(182,207,230);fill-rule:nonzero;"/>
        <path d="M1589.16,1001.48C1586.7,1001.21 1584.49,1002.95 1584.2,1005.41C1580.96,1033.32 1558.4,1054.38 1531.73,1054.38C1505.05,1054.38 1482.49,1033.33 1479.25,1005.41C1478.96,1002.96 1476.75,1001.21 1474.29,1001.49C1471.84,1001.77 1470.09,1003.99 1470.37,1006.44C1474.14,1038.86 1500.52,1063.31 1531.73,1063.31C1562.94,1063.31 1589.31,1038.86 1593.08,1006.44C1593.37,1003.99 1591.61,1001.77 1589.16,1001.48Z" style="fill:rgb(255,0,122);fill-rule:nonzero;"/>
        <path d="M1443.53,983.742C1431.62,977.52 1424.81,969.875 1424.81,962.645C1424.81,958.106 1427.62,953.284 1432.82,953.284C1438.28,953.284 1441.13,957.286 1441.29,957.516L1443.53,960.905L1445.79,957.504C1445.82,957.462 1448.65,953.284 1454.25,953.284C1459.45,953.284 1462.26,958.106 1462.26,962.645C1462.26,969.875 1455.45,977.52 1443.53,983.742ZM1454.25,947.872C1449.21,947.872 1445.64,950.129 1443.53,952.012C1441.43,950.129 1437.86,947.872 1432.82,947.872C1425.29,947.872 1419.4,954.361 1419.4,962.645C1419.4,968.286 1422.38,979.235 1442.32,989.2L1443.53,989.804L1444.74,989.2C1464.69,979.235 1467.67,968.286 1467.67,962.645C1467.67,954.361 1461.77,947.872 1454.25,947.872Z" style="fill:rgb(255,0,122);fill-rule:nonzero;"/>
        <path d="M1606.89,983.742C1594.97,977.52 1588.17,969.875 1588.17,962.645C1588.17,958.106 1590.98,953.284 1596.18,953.284C1601.64,953.284 1604.48,957.282 1604.65,957.516L1606.89,960.906L1609.15,957.504C1609.18,957.462 1612.01,953.284 1617.61,953.284C1622.81,953.284 1625.62,958.106 1625.62,962.645C1625.62,969.875 1618.81,977.52 1606.89,983.742ZM1617.61,947.872C1612.57,947.872 1609,950.127 1606.89,952.012C1604.79,950.127 1601.22,947.872 1596.18,947.872C1588.65,947.872 1582.76,954.361 1582.76,962.645C1582.76,968.286 1585.74,979.235 1605.68,989.2L1606.89,989.804L1608.1,989.2C1628.05,979.235 1631.03,968.286 1631.03,962.645C1631.03,954.361 1625.13,947.872 1617.61,947.872Z" style="fill:rgb(255,0,122);fill-rule:nonzero;"/>
    </g>
</svg>
