<?xml version="1.0" encoding="UTF-8" standalone="no"?>
<!DOCTYPE svg PUBLIC "-//W3C//DTD SVG 1.1//EN" "http://www.w3.org/Graphics/SVG/1.1/DTD/svg11.dtd">
<svg width="100%" height="100%" viewBox="0 0 425 325" version="1.1" xmlns="http://www.w3.org/2000/svg" xmlns:xlink="http://www.w3.org/1999/xlink" xml:space="preserve" xmlns:serif="http://www.serif.com/" style="fill-rule:evenodd;clip-rule:evenodd;stroke-linejoin:round;stroke-miterlimit:2;">
    <g transform="matrix(1,0,0,1,-266.344,-333.514)">
        <path d="M379.855,388.943C385.171,398.151 378.353,412.038 364.627,419.962C350.902,427.887 335.466,426.848 330.15,417.641C324.834,408.435 331.652,394.547 345.378,386.622C359.104,378.698 374.54,379.737 379.855,388.943Z" style="fill:rgb(3,50,63);fill-rule:nonzero;"/>
        <path d="M340.452,402.772C338.365,400.313 333.121,391.044 316.984,362.286L328.032,353.947C340.636,366.587 356.883,383.214 359.543,385.668C360,386.089 340.452,402.772 340.452,402.772Z" style="fill:rgb(3,50,63);fill-rule:nonzero;"/>
        <path d="M338.488,353.879C338.488,365.008 329.465,374.031 318.335,374.031C307.205,374.031 298.182,365.008 298.182,353.879C298.182,342.748 307.205,333.725 318.335,333.725C329.465,333.725 338.488,342.748 338.488,353.879Z" style="fill:rgb(199,216,234);fill-rule:nonzero;"/>
        <path d="M318.265,374.031L318.238,374.031L318.265,374.031ZM318.195,374.031C318.184,374.03 318.173,374.03 318.162,374.03C318.173,374.03 318.184,374.03 318.195,374.031ZM318.125,374.03L318.091,374.03L318.125,374.03ZM318.055,374.029L318.019,374.029L318.055,374.029ZM317.987,374.028C317.974,374.028 317.962,374.028 317.95,374.027C317.962,374.028 317.974,374.028 317.987,374.028ZM317.915,374.027C317.903,374.026 317.891,374.026 317.88,374.026C317.891,374.026 317.903,374.026 317.915,374.027ZM317.873,374.026C317.838,374.025 317.803,374.024 317.768,374.023C317.804,374.024 317.837,374.025 317.873,374.026ZM317.747,374.023C317.731,374.022 317.716,374.022 317.7,374.021C317.716,374.022 317.731,374.022 317.747,374.023ZM317.678,374.021C317.663,374.02 317.647,374.02 317.632,374.019C317.648,374.02 317.662,374.02 317.678,374.021ZM317.611,374.018C317.595,374.018 317.579,374.017 317.562,374.017C317.579,374.017 317.595,374.018 317.611,374.018ZM317.545,374.016C317.528,374.015 317.51,374.014 317.492,374.014C317.51,374.014 317.528,374.015 317.545,374.016ZM317.488,374.014C316.416,373.969 315.365,373.841 314.343,373.636C315.365,373.841 316.416,373.969 317.488,374.014ZM314.327,373.633C314.313,373.63 314.299,373.627 314.284,373.624C314.298,373.627 314.313,373.63 314.327,373.633ZM314.255,373.618C314.244,373.616 314.233,373.613 314.221,373.611C314.233,373.613 314.244,373.616 314.255,373.618ZM314.179,373.602C314.172,373.601 314.165,373.599 314.158,373.598C314.165,373.599 314.172,373.601 314.179,373.602ZM317.659,333.736L317.66,333.736L317.659,333.736ZM317.955,333.729C317.96,333.729 317.966,333.728 317.971,333.728C317.966,333.728 317.961,333.729 317.955,333.729ZM318.025,333.727L318.049,333.727L318.025,333.727ZM318.095,333.727C318.104,333.726 318.113,333.726 318.122,333.726C318.113,333.726 318.103,333.726 318.095,333.727ZM318.168,333.726L318.193,333.726L318.168,333.726ZM318.24,333.725L318.265,333.725L318.24,333.725Z" style="fill:rgb(213,222,226);fill-rule:nonzero;"/>
        <path d="M318.335,374.031L318.195,374.031C318.184,374.03 318.173,374.03 318.162,374.03L318.091,374.03C318.079,374.029 318.067,374.029 318.055,374.029L318.019,374.029C318.008,374.028 317.997,374.028 317.987,374.028C317.974,374.028 317.962,374.028 317.95,374.027L317.915,374.027C317.903,374.026 317.891,374.026 317.88,374.026L317.873,374.026C317.837,374.025 317.804,374.024 317.768,374.023L317.747,374.023C317.731,374.022 317.716,374.022 317.7,374.021L317.678,374.021C317.662,374.02 317.648,374.02 317.632,374.019C317.625,374.019 317.618,374.019 317.611,374.018C317.595,374.018 317.579,374.017 317.562,374.017C317.557,374.016 317.551,374.016 317.545,374.016C317.528,374.015 317.51,374.014 317.492,374.014L317.488,374.014C316.416,373.969 315.365,373.841 314.343,373.636C314.338,373.635 314.333,373.634 314.327,373.633C314.313,373.63 314.298,373.627 314.284,373.624C314.275,373.622 314.265,373.62 314.255,373.618C314.244,373.616 314.233,373.613 314.221,373.611C314.207,373.608 314.193,373.605 314.179,373.602C314.172,373.601 314.165,373.599 314.158,373.598C313.994,373.563 313.83,373.526 313.668,373.488C322.547,371.382 329.153,363.402 329.153,353.879C329.153,344.355 322.547,336.374 313.668,334.269C314.955,333.964 316.29,333.781 317.659,333.736L317.66,333.736C317.758,333.733 317.857,333.73 317.955,333.729C317.961,333.729 317.966,333.728 317.971,333.728C317.989,333.728 318.007,333.728 318.025,333.727L318.095,333.727C318.103,333.726 318.113,333.726 318.122,333.726L318.193,333.726C318.208,333.726 318.224,333.725 318.24,333.725L318.335,333.725C329.465,333.725 338.488,342.748 338.488,353.879C338.488,356.972 337.791,359.903 336.545,362.523C333.991,367.894 329.13,371.957 323.242,373.43C321.671,373.822 320.027,374.031 318.335,374.031Z" style="fill:rgb(166,188,207);fill-rule:nonzero;"/>
        <path d="M313.668,373.488C334.528,377.568 346.331,351.265 330.494,338.484C325.937,334.723 319.631,333.105 313.668,334.269C325.803,330.748 339.07,339.929 339.164,353.879C339.063,367.68 325.912,377.037 313.668,373.488Z" style="fill:rgb(3,50,63);fill-rule:nonzero;"/>
        <path d="M310.015,360.609C305.421,360.609 301.696,356.885 301.696,352.29C301.696,347.695 305.421,343.97 310.015,343.97C314.61,343.97 318.335,347.695 318.335,352.29C318.335,356.885 314.61,360.609 310.015,360.609Z" style="fill:rgb(219,231,243);fill-rule:nonzero;"/>
        <path d="M580.45,391.512C575.135,400.719 581.954,414.607 595.679,422.531C609.404,430.456 624.841,429.416 630.156,420.209C635.472,411.003 628.654,397.115 614.928,389.192C601.202,381.266 585.766,382.306 580.45,391.512Z" style="fill:rgb(3,50,63);fill-rule:nonzero;"/>
        <path d="M619.853,405.34C621.941,402.882 627.185,393.613 643.322,364.855L632.274,356.515C618.891,369.936 602.087,386.904 601.242,387.399L619.853,405.34Z" style="fill:rgb(3,50,63);fill-rule:nonzero;"/>
        <path d="M621.818,356.447C621.818,367.578 630.841,376.601 641.971,376.601C653.101,376.601 662.124,367.578 662.124,356.447C662.124,345.317 653.101,336.294 641.971,336.294C630.841,336.294 621.818,345.317 621.818,356.447Z" style="fill:rgb(199,216,234);fill-rule:nonzero;"/>
        <path d="M642.04,376.601L642.067,376.601L642.04,376.601ZM642.112,376.6L642.141,376.6L642.112,376.6ZM642.182,376.6C642.192,376.6 642.202,376.599 642.212,376.599C642.202,376.599 642.192,376.6 642.182,376.6ZM642.254,376.599C642.264,376.599 642.273,376.599 642.284,376.598C642.274,376.599 642.264,376.599 642.254,376.599ZM642.328,376.598C642.336,376.598 642.344,376.597 642.352,376.597C642.344,376.597 642.336,376.598 642.328,376.598ZM642.42,376.596L642.422,376.596L642.42,376.596ZM642.566,376.592L642.584,376.592L642.566,376.592ZM642.639,376.59C642.645,376.59 642.65,376.59 642.655,376.589C642.65,376.59 642.645,376.59 642.639,376.59ZM642.713,376.587L642.727,376.587L642.713,376.587ZM642.791,376.584L642.797,376.584L642.791,376.584ZM642.724,336.308L642.717,336.308L642.724,336.308ZM642.651,336.306C642.649,336.305 642.645,336.305 642.642,336.305C642.645,336.305 642.648,336.305 642.651,336.306ZM642.573,336.303L642.571,336.303L642.573,336.303ZM642.497,336.301L642.496,336.301L642.497,336.301ZM642.351,336.298C642.345,336.298 642.338,336.298 642.332,336.297C642.339,336.298 642.345,336.298 642.351,336.298ZM642.281,336.297C642.272,336.296 642.265,336.296 642.256,336.296C642.264,336.296 642.273,336.296 642.281,336.297ZM642.212,336.296C642.202,336.296 642.193,336.295 642.183,336.295C642.193,336.295 642.202,336.296 642.212,336.296ZM642.138,336.295L642.113,336.295L642.138,336.295ZM642.066,336.294L642.041,336.294L642.066,336.294Z" style="fill:rgb(213,222,226);fill-rule:nonzero;"/>
        <path d="M641.971,376.601C640.279,376.601 638.635,376.392 637.064,375.999C631.169,374.525 626.303,370.453 623.751,365.072C622.511,362.457 621.818,359.534 621.818,356.447C621.818,345.317 630.841,336.294 641.971,336.294L642.066,336.294C642.082,336.295 642.097,336.295 642.113,336.295L642.183,336.295C642.193,336.295 642.202,336.296 642.212,336.296L642.256,336.296C642.265,336.296 642.272,336.296 642.281,336.297L642.332,336.297C642.338,336.298 642.345,336.298 642.351,336.298C642.4,336.299 642.448,336.3 642.496,336.301L642.497,336.301C642.522,336.302 642.546,336.302 642.571,336.303L642.573,336.303C642.596,336.304 642.619,336.304 642.642,336.305C642.645,336.305 642.649,336.305 642.651,336.306C642.673,336.306 642.695,336.307 642.717,336.308L642.724,336.308C644.067,336.357 645.376,336.538 646.639,336.838C637.759,338.943 631.153,346.924 631.153,356.447C631.153,365.971 637.759,373.951 646.639,376.057C645.399,376.351 644.114,376.531 642.797,376.584L642.791,376.584C642.77,376.585 642.748,376.586 642.727,376.587L642.713,376.587C642.694,376.588 642.675,376.589 642.655,376.589C642.65,376.59 642.645,376.59 642.639,376.59C642.621,376.59 642.602,376.591 642.584,376.592L642.566,376.592C642.518,376.594 642.47,376.595 642.422,376.596L642.42,376.596C642.397,376.596 642.375,376.597 642.352,376.597C642.344,376.597 642.336,376.598 642.328,376.598L642.284,376.598C642.273,376.599 642.264,376.599 642.254,376.599L642.212,376.599C642.202,376.599 642.192,376.6 642.182,376.6L642.112,376.6C642.097,376.6 642.082,376.6 642.067,376.601L641.971,376.601Z" style="fill:rgb(166,188,207);fill-rule:nonzero;"/>
        <path d="M646.639,376.057C625.778,380.137 613.976,353.834 629.812,341.052C634.369,337.292 640.675,335.673 646.639,336.838C634.503,333.316 621.236,342.498 621.142,356.447C621.243,370.249 634.396,379.605 646.639,376.057Z" style="fill:rgb(3,50,63);fill-rule:nonzero;"/>
        <path d="M650.29,363.178C645.696,363.178 641.971,359.453 641.971,354.858C641.971,350.264 645.696,346.539 650.29,346.539C654.886,346.539 658.61,350.264 658.61,354.858C658.61,359.453 654.886,363.178 650.29,363.178Z" style="fill:rgb(219,231,243);fill-rule:nonzero;"/>
        <path d="M266.344,522.419C266.344,575.06 361.363,617.733 478.576,617.733C595.789,617.733 690.809,575.06 690.809,522.419C690.809,469.779 595.789,427.106 478.576,427.106C361.363,427.106 266.344,469.779 266.344,522.419Z" style="fill:rgb(3,50,63);fill-rule:nonzero;"/>
        <path d="M666.033,567.15C662.269,570.325 658.116,573.394 653.603,576.343C664.598,544.716 669.36,509.601 668.209,479.574C671.677,482.663 674.78,485.849 677.496,489.12C677.398,513.875 673.644,541.214 666.033,567.15Z" style="fill:rgb(162,191,220);fill-rule:nonzero;"/>
        <path d="M279.714,489.049C282.443,485.771 285.562,482.579 289.046,479.483C287.265,509.793 293.341,545.515 305.458,577.569C300.758,574.599 296.428,571.503 292.498,568.294C284.009,541.86 279.586,514.056 279.714,489.049Z" style="fill:rgb(162,191,220);fill-rule:nonzero;"/>
        <path d="M420.892,657.432C460.202,651.977 500.084,651.139 539.717,654.99C630.869,663.847 663.308,527.318 650.308,458.603C643.681,423.565 604.632,398.456 571.66,390.658C511.904,376.525 448.067,375.633 388.003,388.241C355.773,395.105 323.896,416.968 311.346,448.391C285.133,514.038 331.853,669.785 420.892,657.432Z" style="fill:rgb(162,191,220);fill-rule:nonzero;"/>
        <path d="M410.967,658.126L410.968,658.126L410.967,658.126ZM410.946,658.126C373.336,658.118 344.084,627.674 325.768,588.565L325.775,588.568C344.088,627.679 373.338,658.109 410.946,658.126ZM548.071,655.401C545.342,655.401 542.559,655.266 539.717,654.99C542.554,655.266 545.346,655.401 548.07,655.401C549.726,655.401 551.361,655.351 552.975,655.254C551.362,655.351 549.726,655.401 548.071,655.401ZM552.976,655.254C553.132,655.244 553.293,655.234 553.449,655.223C553.291,655.234 553.134,655.244 552.976,655.254ZM553.47,655.222C553.584,655.214 553.704,655.206 553.818,655.198C553.702,655.206 553.586,655.214 553.47,655.222ZM553.822,655.198C553.853,655.195 553.884,655.193 553.915,655.191C553.884,655.193 553.852,655.195 553.822,655.198ZM553.966,655.187C553.992,655.185 554.024,655.183 554.05,655.181C554.021,655.183 553.995,655.185 553.966,655.187ZM554.105,655.177C554.146,655.174 554.193,655.17 554.234,655.167C554.191,655.17 554.148,655.174 554.105,655.177ZM554.309,655.161C554.329,655.16 554.358,655.158 554.378,655.156C554.355,655.158 554.332,655.16 554.309,655.161ZM554.452,655.15C554.473,655.148 554.501,655.146 554.522,655.144C554.498,655.146 554.476,655.148 554.452,655.15ZM554.603,655.138C554.619,655.137 554.641,655.135 554.657,655.134C554.639,655.135 554.621,655.136 554.603,655.138ZM554.793,655.122C554.808,655.121 554.817,655.12 554.832,655.119C554.82,655.12 554.806,655.121 554.793,655.122ZM554.943,655.109C554.953,655.109 554.971,655.107 554.981,655.106C554.968,655.107 554.956,655.108 554.943,655.109ZM555.1,655.096C555.11,655.095 555.116,655.094 555.126,655.094C555.117,655.094 555.109,655.095 555.1,655.096ZM555.274,655.08L555.283,655.08L555.274,655.08ZM555.426,655.067C555.431,655.066 555.437,655.066 555.442,655.065C555.436,655.066 555.431,655.066 555.426,655.067ZM538.186,654.844C522.367,653.355 506.507,652.613 490.666,652.613C506.51,652.613 522.366,653.355 538.186,654.844ZM306.251,466.772C307.418,460.247 309.066,454.182 311.21,448.735C309.066,454.182 307.418,460.247 306.251,466.771L306.251,466.772ZM311.268,448.587C311.293,448.523 311.32,448.455 311.346,448.391C311.32,448.455 311.293,448.523 311.268,448.587ZM311.346,448.391C313.576,442.807 316.416,437.525 319.761,432.576C316.417,437.525 313.576,442.808 311.346,448.391ZM319.797,432.522C319.822,432.486 319.846,432.45 319.871,432.413C319.847,432.448 319.821,432.487 319.797,432.522ZM319.926,432.333C319.943,432.308 319.961,432.281 319.978,432.255C319.961,432.281 319.943,432.307 319.926,432.333ZM320.062,432.133C320.07,432.12 320.079,432.108 320.088,432.095C320.078,432.109 320.071,432.119 320.062,432.133ZM320.191,431.945C320.192,431.943 320.195,431.939 320.197,431.937C320.194,431.94 320.193,431.942 320.191,431.945ZM320.288,431.804C320.295,431.794 320.302,431.783 320.309,431.773C320.302,431.784 320.295,431.794 320.288,431.804ZM320.407,431.632C320.411,431.626 320.415,431.621 320.419,431.615C320.415,431.62 320.411,431.627 320.407,431.632ZM320.521,431.468C320.524,431.464 320.527,431.46 320.53,431.456C320.528,431.459 320.524,431.465 320.521,431.468ZM320.752,431.138L320.753,431.138L320.752,431.138Z" style="fill:rgb(213,222,226);fill-rule:nonzero;"/>
        <path d="M325.775,588.568L325.768,588.565C307.413,549.374 300.045,501.483 306.251,466.772L306.251,466.771C300.046,501.478 307.426,549.38 325.775,588.568Z" style="fill:rgb(3,44,57);fill-rule:nonzero;"/>
        <path d="M410.968,658.126L410.946,658.126C373.338,658.109 344.088,627.679 325.775,588.568C307.426,549.38 300.046,501.478 306.251,466.771C307.418,460.247 309.066,454.182 311.21,448.735C311.23,448.682 311.247,448.64 311.268,448.587C311.293,448.523 311.32,448.455 311.346,448.391C313.576,442.808 316.417,437.525 319.761,432.576C319.773,432.558 319.785,432.54 319.797,432.522C319.821,432.487 319.847,432.448 319.871,432.413C319.889,432.386 319.907,432.36 319.926,432.333C319.943,432.307 319.961,432.281 319.978,432.255C320.006,432.214 320.034,432.174 320.062,432.133C320.071,432.119 320.078,432.109 320.088,432.095C320.122,432.045 320.156,431.995 320.191,431.945C320.193,431.942 320.194,431.94 320.197,431.937C320.227,431.892 320.257,431.849 320.288,431.804C320.295,431.794 320.302,431.784 320.309,431.773C320.342,431.726 320.374,431.679 320.407,431.632C320.411,431.627 320.415,431.62 320.419,431.615C320.453,431.566 320.487,431.517 320.521,431.468C320.524,431.465 320.528,431.459 320.53,431.456C320.604,431.35 320.678,431.244 320.752,431.138L320.753,431.138C326.549,422.912 333.745,415.637 341.832,409.459C337.347,415.435 333.606,421.94 330.819,428.917C305.6,492.076 347.902,638.653 430.439,638.653C433.69,638.653 436.99,638.427 440.365,637.958C463.48,634.751 486.794,633.14 510.137,633.14C526.492,633.14 542.861,633.931 559.19,635.518C562.031,635.794 564.816,635.929 567.544,635.929C585.575,635.929 601.13,630.037 614.326,620.12C599.341,639.44 579.82,652.815 555.442,655.065C555.437,655.066 555.431,655.066 555.426,655.067C555.379,655.071 555.33,655.075 555.283,655.08L555.274,655.08C555.225,655.085 555.174,655.089 555.126,655.094C555.116,655.094 555.11,655.095 555.1,655.096C555.06,655.099 555.02,655.103 554.981,655.106C554.971,655.107 554.953,655.109 554.943,655.109C554.905,655.113 554.87,655.116 554.832,655.119C554.817,655.12 554.808,655.121 554.793,655.122C554.748,655.126 554.702,655.13 554.657,655.134C554.641,655.135 554.619,655.137 554.603,655.138C554.576,655.14 554.549,655.142 554.522,655.144C554.501,655.146 554.473,655.148 554.452,655.15C554.427,655.152 554.404,655.154 554.378,655.156C554.358,655.158 554.329,655.16 554.309,655.161C554.285,655.163 554.258,655.165 554.234,655.167C554.193,655.17 554.146,655.174 554.105,655.177C554.087,655.178 554.068,655.18 554.05,655.181C554.024,655.183 553.992,655.185 553.966,655.187C553.95,655.188 553.931,655.19 553.915,655.191C553.884,655.193 553.853,655.195 553.822,655.198L553.818,655.198C553.704,655.206 553.584,655.214 553.47,655.222C553.462,655.222 553.456,655.223 553.449,655.223C553.293,655.234 553.132,655.244 552.976,655.254L552.975,655.254C551.361,655.351 549.726,655.401 548.07,655.401C545.346,655.401 542.554,655.266 539.717,654.99C539.207,654.941 538.697,654.892 538.186,654.844C522.366,653.355 506.51,652.613 490.666,652.613L490.665,652.613C467.32,652.613 444.009,654.224 420.892,657.432C417.523,657.899 414.215,658.126 410.968,658.126Z" style="fill:rgb(135,166,195);fill-rule:nonzero;"/>
        <path d="M559.563,442.606C505.707,438.42 451.605,438.42 397.747,442.606C311.382,449.319 281.647,592.066 437.855,613.465C487.408,620.254 546.91,616.702 590.338,589.794C658.341,547.66 634.099,448.399 559.563,442.606Z" style="fill:rgb(199,216,234);fill-rule:nonzero;"/>
        <path d="M481.121,614.092C466.973,614.092 452.524,613.095 438.175,611.129C356.13,599.89 328.078,555.562 329.184,517.826C330.314,479.242 359.869,447.915 397.93,444.957C424.67,442.878 451.832,441.824 478.653,441.824L478.656,441.824C505.478,441.824 532.638,442.878 559.381,444.957C591.949,447.487 618.005,469.734 625.763,501.631C633.908,535.123 619.516,568.942 589.096,587.79C554.011,609.528 511.016,614.092 481.124,614.092L481.121,614.092Z" style="fill:rgb(3,50,63);fill-rule:nonzero;"/>
        <path d="M587.256,427.105C576.957,427.105 563.237,425.644 548.431,423.865C519.3,420.097 494.56,416.17 493.641,407.996C492.8,401.351 510.943,393.602 536.107,393.602C541.178,393.602 546.536,393.917 552.079,394.619C585.147,398.681 608.382,414.451 605.441,421.942C604.013,425.732 597.243,427.105 587.256,427.105Z" style="fill:rgb(182,207,230);fill-rule:nonzero;"/>
        <path d="M479.396,591.792C448.189,591.792 421.813,567.341 418.042,534.918C417.757,532.467 419.514,530.249 421.964,529.963C424.421,529.684 534.373,529.686 536.829,529.959C539.28,530.246 541.036,532.463 540.751,534.915C536.982,567.34 510.606,591.792 479.396,591.792Z" style="fill:rgb(0,255,255);fill-rule:nonzero;"/>
        <path d="M409.636,486.507C409.636,491.88 405.281,496.235 399.908,496.235C394.535,496.235 390.18,491.88 390.18,486.507C390.18,481.134 394.535,476.779 399.908,476.779C405.281,476.779 409.636,481.134 409.636,486.507Z" style="fill:rgb(0,255,255);fill-rule:nonzero;"/>
        <path d="M568.613,486.507C568.613,491.88 564.258,496.235 558.885,496.235C553.512,496.235 549.156,491.88 549.156,486.507C549.156,481.134 553.512,476.779 558.885,476.779C564.258,476.779 568.613,481.134 568.613,486.507Z" style="fill:rgb(0,255,255);fill-rule:nonzero;"/>
    </g>
</svg>
