<?xml version="1.0" encoding="UTF-8" standalone="no"?>
<!DOCTYPE svg PUBLIC "-//W3C//DTD SVG 1.1//EN" "http://www.w3.org/Graphics/SVG/1.1/DTD/svg11.dtd">
<svg width="100%" height="100%" viewBox="0 0 425 325" version="1.1" xmlns="http://www.w3.org/2000/svg" xmlns:xlink="http://www.w3.org/1999/xlink" xml:space="preserve" xmlns:serif="http://www.serif.com/" style="fill-rule:evenodd;clip-rule:evenodd;stroke-linejoin:round;stroke-miterlimit:2;">
    <g transform="matrix(1,0,0,1,-266.344,-1748.92)">
        <path d="M379.855,1804.35C385.171,1813.55 378.353,1827.44 364.627,1835.36C350.902,1843.29 335.466,1842.25 330.15,1833.04C324.834,1823.84 331.652,1809.95 345.378,1802.03C359.104,1794.1 374.54,1795.14 379.855,1804.35Z" style="fill:rgb(3,50,63);fill-rule:nonzero;"/>
        <path d="M340.452,1818.17C338.365,1815.72 333.121,1806.45 316.984,1777.69L328.032,1769.35C340.636,1781.99 356.883,1798.62 359.543,1801.07C360,1801.49 340.452,1818.17 340.452,1818.17Z" style="fill:rgb(3,50,63);fill-rule:nonzero;"/>
        <path d="M338.488,1769.28C338.488,1780.41 329.465,1789.44 318.335,1789.44C307.205,1789.44 298.182,1780.41 298.182,1769.28C298.182,1758.15 307.205,1749.13 318.335,1749.13C329.465,1749.13 338.488,1758.15 338.488,1769.28Z" style="fill:rgb(199,216,234);fill-rule:nonzero;"/>
        <path d="M318.265,1789.44L318.24,1789.44L318.265,1789.44ZM318.192,1789.44L318.169,1789.44L318.192,1789.44ZM318.119,1789.43L318.099,1789.43L318.119,1789.43ZM318.042,1789.43L318.03,1789.43L318.042,1789.43ZM318.032,1749.13L318.038,1749.13L318.032,1749.13ZM318.099,1749.13L318.119,1749.13L318.099,1749.13ZM318.171,1749.13L318.192,1749.13L318.171,1749.13ZM318.24,1749.13L318.265,1749.13L318.24,1749.13Z" style="fill:rgb(213,222,226);fill-rule:nonzero;"/>
        <path d="M318.335,1789.44L318.169,1789.44C318.153,1789.43 318.136,1789.43 318.119,1789.43L318.03,1789.43C316.53,1789.41 315.071,1789.22 313.668,1788.89C322.547,1786.79 329.153,1778.81 329.153,1769.28C329.153,1759.76 322.547,1751.78 313.668,1749.67C315.071,1749.34 316.532,1749.15 318.032,1749.13L318.335,1749.13C329.465,1749.13 338.488,1758.15 338.488,1769.28C338.488,1772.38 337.791,1775.31 336.546,1777.93C333.991,1783.3 329.13,1787.36 323.242,1788.83C321.671,1789.23 320.027,1789.44 318.335,1789.44Z" style="fill:rgb(166,188,207);fill-rule:nonzero;"/>
        <path d="M313.668,1788.89C334.528,1792.97 346.331,1766.67 330.494,1753.89C325.937,1750.13 319.631,1748.51 313.668,1749.67C325.803,1746.15 339.07,1755.33 339.164,1769.28C339.063,1783.08 325.912,1792.44 313.668,1788.89Z" style="fill:rgb(3,50,63);fill-rule:nonzero;"/>
        <path d="M310.015,1776.01C305.421,1776.01 301.696,1772.29 301.696,1767.69C301.696,1763.1 305.421,1759.37 310.015,1759.37C314.61,1759.37 318.335,1763.1 318.335,1767.69C318.335,1772.29 314.61,1776.01 310.015,1776.01Z" style="fill:rgb(219,231,243);fill-rule:nonzero;"/>
        <path d="M580.45,1806.92C575.135,1816.12 581.954,1830.01 595.679,1837.93C609.404,1845.86 624.841,1844.82 630.156,1835.61C635.472,1826.41 628.654,1812.52 614.928,1804.59C601.202,1796.67 585.766,1797.71 580.45,1806.92Z" style="fill:rgb(3,50,63);fill-rule:nonzero;"/>
        <path d="M619.853,1820.74C621.941,1818.28 627.185,1809.02 643.322,1780.26L632.274,1771.92C618.891,1785.34 602.087,1802.31 601.242,1802.8L619.853,1820.74Z" style="fill:rgb(3,50,63);fill-rule:nonzero;"/>
        <path d="M621.818,1771.85C621.818,1782.98 630.841,1792 641.971,1792C653.101,1792 662.124,1782.98 662.124,1771.85C662.124,1760.72 653.101,1751.7 641.971,1751.7C630.841,1751.7 621.818,1760.72 621.818,1771.85Z" style="fill:rgb(199,216,234);fill-rule:nonzero;"/>
        <path d="M642.04,1792L642.066,1792L642.04,1792ZM642.112,1792L642.139,1792L642.112,1792ZM642.184,1792L642.21,1792L642.184,1792ZM642.258,1792L642.28,1792L642.258,1792ZM642.339,1792L642.349,1792L642.339,1792ZM645.501,1791.7C645.503,1791.7 645.505,1791.69 645.507,1791.69C645.505,1791.69 645.503,1791.7 645.501,1791.7ZM645.56,1791.68L645.594,1791.68L645.56,1791.68ZM645.607,1791.68C645.954,1791.61 646.297,1791.54 646.637,1791.46L646.639,1791.46C646.298,1791.54 645.954,1791.61 645.607,1791.68ZM646.637,1752.24C645.265,1751.92 643.84,1751.73 642.375,1751.7C643.84,1751.73 645.267,1751.92 646.639,1752.24L646.637,1752.24ZM642.358,1751.7L642.317,1751.7L642.358,1751.7ZM642.286,1751.7L642.25,1751.7L642.286,1751.7ZM642.214,1751.7L642.181,1751.7L642.214,1751.7ZM642.142,1751.7L642.111,1751.7L642.142,1751.7ZM642.068,1751.7L642.041,1751.7L642.068,1751.7Z" style="fill:rgb(213,222,226);fill-rule:nonzero;"/>
        <path d="M641.971,1792C640.279,1792 638.635,1791.8 637.064,1791.4C631.17,1789.93 626.303,1785.86 623.751,1780.48C622.511,1777.86 621.818,1774.94 621.818,1771.85C621.818,1760.72 630.841,1751.7 641.971,1751.7L642.375,1751.7C643.84,1751.73 645.265,1751.92 646.637,1752.24C637.759,1754.35 631.153,1762.33 631.153,1771.85C631.153,1781.37 637.758,1789.35 646.637,1791.46C646.297,1791.54 645.954,1791.61 645.607,1791.68L645.56,1791.68C645.542,1791.69 645.525,1791.69 645.507,1791.69C645.505,1791.69 645.503,1791.7 645.501,1791.7C644.475,1791.88 643.422,1791.98 642.349,1792L641.971,1792Z" style="fill:rgb(166,188,207);fill-rule:nonzero;"/>
        <path d="M646.639,1791.46C625.778,1795.54 613.976,1769.24 629.812,1756.46C634.369,1752.7 640.675,1751.08 646.639,1752.24C634.503,1748.72 621.236,1757.9 621.142,1771.85C621.243,1785.65 634.396,1795.01 646.639,1791.46Z" style="fill:rgb(3,50,63);fill-rule:nonzero;"/>
        <path d="M650.29,1778.58C645.696,1778.58 641.971,1774.86 641.971,1770.26C641.971,1765.67 645.696,1761.94 650.29,1761.94C654.886,1761.94 658.61,1765.67 658.61,1770.26C658.61,1774.86 654.886,1778.58 650.29,1778.58Z" style="fill:rgb(219,231,243);fill-rule:nonzero;"/>
        <path d="M266.344,1937.82C266.344,1990.46 361.363,2033.14 478.576,2033.14C595.789,2033.14 690.809,1990.46 690.809,1937.82C690.809,1885.18 595.789,1842.51 478.576,1842.51C361.363,1842.51 266.344,1885.18 266.344,1937.82Z" style="fill:rgb(3,50,63);fill-rule:nonzero;"/>
        <path d="M666.033,1982.55C662.269,1985.73 658.116,1988.8 653.603,1991.75C664.598,1960.12 669.36,1925 668.209,1894.98C671.677,1898.07 674.78,1901.25 677.496,1904.52C677.398,1929.28 673.644,1956.62 666.033,1982.55Z" style="fill:rgb(162,191,220);fill-rule:nonzero;"/>
        <path d="M279.714,1904.45C282.443,1901.17 285.562,1897.98 289.046,1894.89C287.265,1925.2 293.341,1960.92 305.458,1992.97C300.758,1990 296.428,1986.91 292.498,1983.7C284.009,1957.26 279.586,1929.46 279.714,1904.45Z" style="fill:rgb(162,191,220);fill-rule:nonzero;"/>
        <path d="M420.892,2072.84C460.202,2067.38 500.084,2066.54 539.717,2070.39C630.869,2079.25 663.308,1942.72 650.308,1874.01C643.681,1838.97 604.632,1813.86 571.66,1806.06C511.904,1791.93 448.067,1791.04 388.003,1803.64C355.773,1810.51 323.896,1832.37 311.346,1863.79C285.133,1929.44 331.853,2085.19 420.892,2072.84Z" style="fill:rgb(162,191,220);fill-rule:nonzero;"/>
        <path d="M410.966,2073.53L410.968,2073.53L410.966,2073.53ZM410.946,2073.53C373.336,2073.52 344.084,2043.08 325.768,2003.97L325.775,2003.97C344.088,2043.08 373.338,2073.51 410.946,2073.53ZM546.701,2070.79C544.412,2070.76 542.085,2070.62 539.717,2070.39C542.081,2070.62 544.415,2070.76 546.701,2070.79ZM537.924,2070.22C529.468,2069.43 521,2068.85 512.531,2068.49C521.003,2068.85 529.466,2069.43 537.924,2070.22ZM306.251,1882.17C307.407,1875.71 309.034,1869.7 311.149,1864.29C309.034,1869.7 307.408,1875.71 306.251,1882.17ZM311.183,1864.21C311.191,1864.18 311.202,1864.16 311.21,1864.14C311.202,1864.16 311.191,1864.18 311.183,1864.21ZM311.268,1863.99C311.269,1863.99 311.273,1863.98 311.275,1863.97C311.273,1863.98 311.269,1863.99 311.268,1863.99ZM311.346,1863.79C313.159,1859.25 315.376,1854.91 317.94,1850.79C315.377,1854.91 313.159,1859.25 311.346,1863.79ZM317.942,1850.78C317.974,1850.73 318.006,1850.68 318.038,1850.63C318.006,1850.68 317.974,1850.73 317.942,1850.78ZM318.047,1850.62C318.081,1850.56 318.115,1850.51 318.15,1850.45C318.115,1850.51 318.082,1850.56 318.047,1850.62ZM318.15,1850.45C318.183,1850.4 318.214,1850.35 318.246,1850.3C318.215,1850.35 318.182,1850.4 318.15,1850.45ZM318.256,1850.28C318.288,1850.23 318.321,1850.18 318.353,1850.13C318.32,1850.18 318.289,1850.23 318.256,1850.28ZM318.361,1850.12C318.39,1850.07 318.418,1850.03 318.446,1849.98C318.417,1850.03 318.39,1850.07 318.361,1850.12ZM318.469,1849.95C318.534,1849.84 318.6,1849.74 318.666,1849.64C318.601,1849.74 318.534,1849.85 318.469,1849.95ZM318.68,1849.62C318.709,1849.57 318.739,1849.53 318.769,1849.48C318.739,1849.53 318.71,1849.57 318.68,1849.62ZM318.786,1849.45C318.809,1849.42 318.833,1849.38 318.856,1849.35C318.833,1849.38 318.81,1849.42 318.786,1849.45ZM318.895,1849.29C318.92,1849.25 318.946,1849.21 318.971,1849.17C318.946,1849.21 318.919,1849.25 318.895,1849.29ZM319.001,1849.12C319.021,1849.09 319.042,1849.06 319.062,1849.03C319.041,1849.06 319.022,1849.09 319.001,1849.12ZM319.11,1848.96C319.111,1848.95 319.111,1848.95 319.112,1848.95L319.11,1848.96Z" style="fill:rgb(213,222,226);fill-rule:nonzero;"/>
        <path d="M325.775,2003.97L325.768,2003.97C307.413,1964.78 300.045,1916.89 306.251,1882.17C300.046,1916.88 307.426,1964.78 325.775,2003.97Z" style="fill:rgb(3,44,57);fill-rule:nonzero;"/>
        <path d="M410.968,2073.53L410.946,2073.53C373.338,2073.51 344.088,2043.08 325.775,2003.97C307.426,1964.78 300.046,1916.88 306.251,1882.17C307.408,1875.71 309.034,1869.7 311.149,1864.29C311.16,1864.26 311.172,1864.23 311.183,1864.21C311.191,1864.18 311.202,1864.16 311.21,1864.14C311.23,1864.09 311.247,1864.04 311.268,1863.99C311.269,1863.99 311.273,1863.98 311.275,1863.97C311.299,1863.91 311.322,1863.85 311.346,1863.79C313.159,1859.25 315.377,1854.91 317.94,1850.79C317.94,1850.79 317.941,1850.79 317.942,1850.78C317.974,1850.73 318.006,1850.68 318.038,1850.63C318.041,1850.63 318.044,1850.62 318.047,1850.62C318.082,1850.56 318.115,1850.51 318.15,1850.45C318.182,1850.4 318.215,1850.35 318.246,1850.3C318.25,1850.29 318.253,1850.29 318.256,1850.28C318.289,1850.23 318.32,1850.18 318.353,1850.13C318.355,1850.13 318.359,1850.12 318.361,1850.12C318.39,1850.07 318.417,1850.03 318.446,1849.98C318.454,1849.97 318.461,1849.96 318.469,1849.95C318.534,1849.85 318.601,1849.74 318.666,1849.64C318.671,1849.63 318.675,1849.63 318.68,1849.62C318.71,1849.57 318.739,1849.53 318.769,1849.48C318.774,1849.47 318.781,1849.46 318.786,1849.45C318.81,1849.42 318.833,1849.38 318.856,1849.35C318.869,1849.32 318.882,1849.31 318.895,1849.29C318.919,1849.25 318.946,1849.21 318.971,1849.17C318.981,1849.15 318.991,1849.14 319.001,1849.12C319.022,1849.09 319.041,1849.06 319.062,1849.03C319.078,1849.01 319.094,1848.98 319.11,1848.96L319.112,1848.95C325.167,1839.73 332.964,1831.64 341.832,1824.86C337.347,1830.84 333.606,1837.34 330.819,1844.32C305.6,1907.48 347.903,2054.06 430.439,2054.06C433.69,2054.06 436.99,2053.83 440.365,2053.36C463.48,2050.16 486.799,2048.54 510.142,2048.54C526.497,2048.54 542.861,2049.33 559.19,2050.92C562.03,2051.2 564.814,2051.33 567.541,2051.33C585.573,2051.33 601.129,2045.44 614.326,2035.52C597.86,2056.75 575.916,2070.8 548.07,2070.8C547.614,2070.8 547.159,2070.8 546.701,2070.79C544.415,2070.76 542.081,2070.62 539.717,2070.39C539.12,2070.34 538.522,2070.28 537.924,2070.22C529.466,2069.43 521.003,2068.85 512.531,2068.49C505.244,2068.17 497.95,2068.02 490.664,2068.02C467.318,2068.02 444.009,2069.63 420.892,2072.84C417.523,2073.3 414.214,2073.53 410.968,2073.53Z" style="fill:rgb(135,166,195);fill-rule:nonzero;"/>
        <path d="M559.563,1858.01C505.707,1853.82 451.605,1853.82 397.747,1858.01C311.382,1864.72 281.647,2007.47 437.855,2028.87C487.408,2035.66 546.91,2032.11 590.338,2005.2C658.341,1963.06 634.099,1863.8 559.563,1858.01Z" style="fill:rgb(199,216,234);fill-rule:nonzero;"/>
        <path d="M481.121,2029.49C466.973,2029.49 452.524,2028.5 438.175,2026.53C356.13,2015.29 328.078,1970.97 329.184,1933.23C330.314,1894.64 359.869,1863.32 397.93,1860.36C424.67,1858.28 451.832,1857.23 478.653,1857.23L478.656,1857.23C505.478,1857.23 532.638,1858.28 559.381,1860.36C591.949,1862.89 618.005,1885.14 625.763,1917.03C633.908,1950.53 619.516,1984.35 589.096,2003.19C554.011,2024.93 511.016,2029.49 481.124,2029.49L481.121,2029.49Z" style="fill:rgb(3,50,63);fill-rule:nonzero;"/>
        <path d="M587.258,1842.51C576.959,1842.51 563.237,1841.05 548.431,1839.27C519.3,1835.5 494.56,1831.57 493.641,1823.4C492.8,1816.75 510.941,1809.01 536.106,1809.01C541.177,1809.01 546.536,1809.32 552.079,1810.02C585.147,1814.08 608.382,1829.85 605.441,1837.35C604.013,1841.14 597.245,1842.51 587.258,1842.51Z" style="fill:rgb(182,207,230);fill-rule:nonzero;"/>
        <path d="M478.896,1939.35C510.103,1939.35 536.479,1963.8 540.251,1996.22C540.536,1998.67 538.779,2000.89 536.328,2001.18C535.1,2001.31 506.998,1982.26 478.895,1982.26C450.793,1982.26 422.692,2001.32 421.464,2001.18C419.013,2000.89 417.256,1998.67 417.541,1996.22C421.31,1963.8 447.687,1939.35 478.896,1939.35Z" style="fill:rgb(0,255,238);fill-rule:nonzero;"/>
        <path d="M409.136,1901.36C409.136,1906.73 404.781,1911.09 399.408,1911.09C394.035,1911.09 389.68,1906.73 389.68,1901.36C389.68,1895.98 394.035,1891.63 399.408,1891.63C404.781,1891.63 409.136,1895.98 409.136,1901.36Z" style="fill:rgb(0,255,238);fill-rule:nonzero;"/>
        <path d="M568.112,1901.36C568.112,1906.73 563.757,1911.09 558.384,1911.09C553.011,1911.09 548.656,1906.73 548.656,1901.36C548.656,1895.98 553.011,1891.63 558.384,1891.63C563.757,1891.63 568.112,1895.98 568.112,1901.36Z" style="fill:rgb(0,255,238);fill-rule:nonzero;"/>
    </g>
</svg>
